<svg xmlns="http://www.w3.org/2000/svg" xmlns:xlink="http://www.w3.org/1999/xlink" width="500" zoomAndPan="magnify" viewBox="0 0 375 374.999991" height="500" preserveAspectRatio="xMidYMid meet" version="1.0"><defs><g/><clipPath id="592d2f4f4b"><path d="M 45.941406 102.816406 L 159.941406 102.816406 L 159.941406 288.066406 L 45.941406 288.066406 Z M 45.941406 102.816406 " clip-rule="nonzero"/></clipPath><clipPath id="a3c436fca0"><path d="M 86 110 L 110 110 L 110 146 L 86 146 Z M 86 110 " clip-rule="nonzero"/></clipPath><clipPath id="7fcfed74a6"><path d="M 81.132812 139.453125 L 93.5 86.890625 L 169.425781 104.753906 L 157.058594 157.316406 Z M 81.132812 139.453125 " clip-rule="nonzero"/></clipPath><clipPath id="94810fb0a9"><path d="M 81.132812 139.453125 L 93.5 86.890625 L 169.425781 104.753906 L 157.058594 157.316406 Z M 81.132812 139.453125 " clip-rule="nonzero"/></clipPath><clipPath id="f8153d4b19"><path d="M 126 98 L 143 98 L 143 141 L 126 141 Z M 126 98 " clip-rule="nonzero"/></clipPath><clipPath id="d8ce529711"><path d="M 81.132812 139.453125 L 93.5 86.890625 L 169.425781 104.753906 L 157.058594 157.316406 Z M 81.132812 139.453125 " clip-rule="nonzero"/></clipPath><clipPath id="31b6aa2646"><path d="M 81.132812 139.453125 L 93.5 86.890625 L 169.425781 104.753906 L 157.058594 157.316406 Z M 81.132812 139.453125 " clip-rule="nonzero"/></clipPath><clipPath id="1d91d15a3d"><path d="M 139 125 L 164 125 L 164 147 L 139 147 Z M 139 125 " clip-rule="nonzero"/></clipPath><clipPath id="75cce9a220"><path d="M 81.132812 139.453125 L 93.5 86.890625 L 169.425781 104.753906 L 157.058594 157.316406 Z M 81.132812 139.453125 " clip-rule="nonzero"/></clipPath><clipPath id="ea5b5b637d"><path d="M 81.132812 139.453125 L 93.5 86.890625 L 169.425781 104.753906 L 157.058594 157.316406 Z M 81.132812 139.453125 " clip-rule="nonzero"/></clipPath><clipPath id="631436566e"><path d="M 111 120 L 119 120 L 119 141 L 111 141 Z M 111 120 " clip-rule="nonzero"/></clipPath><clipPath id="e5ba8c0497"><path d="M 81.132812 139.453125 L 93.5 86.890625 L 169.425781 104.753906 L 157.058594 157.316406 Z M 81.132812 139.453125 " clip-rule="nonzero"/></clipPath><clipPath id="507f167c52"><path d="M 81.132812 139.453125 L 93.5 86.890625 L 169.425781 104.753906 L 157.058594 157.316406 Z M 81.132812 139.453125 " clip-rule="nonzero"/></clipPath><clipPath id="3d53abdb4d"><path d="M 132 130 L 142 130 L 142 143 L 132 143 Z M 132 130 " clip-rule="nonzero"/></clipPath><clipPath id="cf586caad8"><path d="M 81.132812 139.453125 L 93.5 86.890625 L 169.425781 104.753906 L 157.058594 157.316406 Z M 81.132812 139.453125 " clip-rule="nonzero"/></clipPath><clipPath id="3bb099b5ea"><path d="M 81.132812 139.453125 L 93.5 86.890625 L 169.425781 104.753906 L 157.058594 157.316406 Z M 81.132812 139.453125 " clip-rule="nonzero"/></clipPath><clipPath id="60cb8d18ba"><path d="M 287 228 L 301 228 L 301 239.835938 L 287 239.835938 Z M 287 228 " clip-rule="nonzero"/></clipPath></defs><g clip-path="url(#592d2f4f4b)"><path fill="#ffffff" d="M 159.648438 169.925781 L 158.417969 159.886719 C 158.289062 158.835938 157.988281 157.820312 157.519531 156.863281 C 156.730469 155.238281 155.503906 153.839844 153.875 152.699219 C 153.605469 152.503906 153.359375 152.347656 153.148438 152.214844 C 152.558594 151.851562 151.902344 151.503906 151.195312 151.1875 C 150.785156 151 150.339844 150.816406 149.855469 150.632812 C 148.585938 150.160156 147.164062 149.742188 145.652344 149.40625 C 144.972656 149.253906 144.238281 149.105469 143.464844 148.96875 L 143.210938 148.921875 C 142.738281 148.84375 142.25 148.765625 141.746094 148.691406 C 140.382812 148.488281 138.890625 148.3125 137.316406 148.171875 C 136.75 148.121094 136.175781 148.074219 135.589844 148.035156 L 135.550781 148.03125 C 133.734375 147.898438 131.789062 147.808594 129.761719 147.761719 L 129.667969 147.761719 C 129.007812 147.746094 128.332031 147.738281 127.640625 147.726562 L 127.589844 147.726562 C 126.890625 147.722656 126.183594 147.71875 125.464844 147.722656 C 124.734375 147.722656 123.996094 147.730469 123.257812 147.746094 C 122.515625 147.753906 121.761719 147.773438 121.042969 147.796875 C 120.273438 147.816406 119.5 147.847656 118.714844 147.878906 C 116.015625 147.984375 113.207031 148.15625 110.367188 148.382812 L 110.210938 148.394531 C 106.921875 148.65625 103.523438 149 100.113281 149.417969 C 97.527344 149.734375 94.953125 150.089844 92.429688 150.480469 L 82.140625 106.113281 C 81.859375 105.773438 81.527344 105.4375 81.140625 105.117188 L 78.785156 103.730469 C 77.746094 103.320312 76.496094 103.035156 74.996094 102.960938 C 72.691406 102.847656 70.339844 103.210938 68.777344 103.535156 C 67.738281 103.75 65.707031 104.234375 63.753906 105.066406 C 61.996094 105.816406 60.695312 106.703125 59.738281 107.632812 L 58.0625 109.882812 C 57.832031 110.34375 57.65625 110.796875 57.527344 111.234375 L 65.984375 156.410156 C 65.769531 156.480469 65.558594 156.546875 65.351562 156.617188 C 63.777344 157.128906 62.28125 157.660156 60.902344 158.191406 C 60.4375 158.371094 59.980469 158.554688 59.539062 158.734375 L 59.5 158.75 C 59.003906 158.953125 58.519531 159.15625 58.027344 159.378906 C 57.277344 159.710938 56.570312 160.042969 55.941406 160.359375 C 54.894531 160.882812 53.914062 161.429688 53.027344 161.988281 C 52.714844 162.183594 52.417969 162.378906 52.132812 162.574219 C 51.714844 162.863281 51.328125 163.148438 50.980469 163.425781 C 50.359375 163.910156 49.800781 164.410156 49.308594 164.917969 C 49.128906 165.097656 48.941406 165.296875 48.75 165.527344 C 47.429688 167.042969 46.570312 168.703125 46.199219 170.460938 C 45.976562 171.507812 45.929688 172.570312 46.058594 173.621094 L 47.285156 183.660156 C 47.558594 185.878906 48.753906 189 52.839844 191.472656 L 59.730469 218.691406 C 60.117188 220.503906 61.109375 222.800781 63.519531 224.828125 L 75.332031 276.109375 C 76.855469 284.023438 85.890625 288.035156 102.195312 288.035156 C 106.777344 288.035156 111.894531 287.707031 116.988281 287.082031 C 131.445312 285.316406 155.5 280.285156 154.761719 266.402344 L 153.839844 213.773438 C 153.84375 213.761719 153.855469 213.75 153.867188 213.734375 C 155.289062 211.96875 156.078125 209.773438 156.042969 207.507812 C 156.042969 207.261719 156.148438 178.984375 156.148438 178.984375 C 159.523438 175.515625 159.921875 172.15625 159.648438 169.925781 Z M 159.648438 169.925781 " fill-opacity="1" fill-rule="nonzero"/></g><path fill="#000000" d="M 153.195312 170.714844 L 151.964844 160.679688 C 151.925781 160.34375 151.824219 160.011719 151.671875 159.703125 C 151.367188 159.070312 150.828125 158.488281 150.097656 157.984375 C 149.976562 157.894531 149.847656 157.8125 149.714844 157.730469 C 149.367188 157.511719 148.957031 157.296875 148.503906 157.097656 C 148.226562 156.96875 147.914062 156.839844 147.570312 156.710938 C 146.585938 156.34375 145.457031 156.015625 144.210938 155.738281 C 143.601562 155.601562 142.933594 155.464844 142.226562 155.339844 C 142.226562 155.339844 142.222656 155.339844 142.21875 155.339844 C 141.753906 155.261719 141.28125 155.1875 140.789062 155.113281 C 139.535156 154.925781 138.175781 154.769531 136.734375 154.640625 C 136.207031 154.59375 135.671875 154.550781 135.125 154.511719 C 135.117188 154.507812 135.113281 154.507812 135.105469 154.507812 C 133.375 154.382812 131.507812 154.292969 129.554688 154.253906 C 129.550781 154.253906 129.546875 154.253906 129.539062 154.253906 C 128.890625 154.238281 128.226562 154.230469 127.546875 154.21875 C 126.871094 154.214844 126.1875 154.210938 125.496094 154.214844 C 124.796875 154.214844 124.085938 154.222656 123.375 154.238281 C 122.664062 154.246094 121.9375 154.265625 121.207031 154.285156 C 120.46875 154.304688 119.726562 154.335938 118.976562 154.363281 C 116.355469 154.46875 113.632812 154.636719 110.878906 154.855469 C 110.855469 154.855469 110.832031 154.859375 110.808594 154.859375 C 110.78125 154.863281 110.753906 154.867188 110.726562 154.867188 C 107.527344 155.121094 104.222656 155.457031 100.902344 155.863281 C 97.578125 156.265625 94.277344 156.742188 91.089844 157.269531 C 91.074219 157.269531 91.058594 157.273438 91.046875 157.277344 C 91.027344 157.277344 91.011719 157.28125 90.992188 157.285156 C 89.761719 157.488281 88.542969 157.699219 87.339844 157.921875 L 84.601562 144.769531 C 84.578125 144.652344 77.46875 110.875 77.46875 110.875 C 77.464844 110.851562 77.457031 110.832031 77.449219 110.808594 C 77.125 109.570312 75.285156 109.476562 74.671875 109.449219 C 73.398438 109.382812 71.777344 109.542969 70.101562 109.890625 C 68.953125 110.128906 63.257812 111.433594 63.734375 113.726562 C 63.734375 113.730469 63.734375 113.730469 63.734375 113.730469 L 73.570312 160.964844 C 73.285156 161.042969 73 161.117188 72.722656 161.195312 C 70.816406 161.710938 69.011719 162.25 67.367188 162.789062 C 65.898438 163.265625 64.519531 163.753906 63.25 164.246094 C 62.824219 164.410156 62.414062 164.574219 62.015625 164.738281 C 62.007812 164.742188 62 164.746094 61.988281 164.75 C 61.535156 164.933594 61.097656 165.117188 60.675781 165.308594 C 60.019531 165.597656 59.402344 165.890625 58.847656 166.167969 C 57.988281 166.597656 57.203125 167.035156 56.496094 167.480469 C 56.261719 167.628906 56.035156 167.777344 55.820312 167.925781 C 55.515625 168.132812 55.242188 168.332031 55.011719 168.519531 C 54.613281 168.828125 54.269531 169.136719 53.976562 169.433594 C 53.871094 169.542969 53.765625 169.652344 53.695312 169.742188 C 53.085938 170.433594 52.703125 171.128906 52.5625 171.804688 C 52.488281 172.152344 52.46875 172.496094 52.511719 172.832031 L 53.742188 182.867188 C 53.886719 184.0625 54.824219 185.148438 56.523438 186.105469 C 57.078125 186.417969 57.710938 186.714844 58.410156 187 L 66.074219 217.25 C 66.363281 218.789062 67.535156 219.980469 69.289062 220.902344 L 81.699219 274.789062 C 82.546875 279.617188 91.335938 281.542969 102.195312 281.542969 C 106.648438 281.542969 111.453125 281.21875 116.199219 280.640625 C 132.515625 278.644531 148.746094 273.550781 148.261719 266.65625 L 147.292969 211.355469 C 148.070312 210.667969 148.671875 209.941406 149.054688 209.183594 C 149.09375 209.140625 149.132812 209.101562 149.171875 209.0625 L 149.15625 208.96875 C 149.433594 208.351562 149.570312 207.710938 149.53125 207.050781 L 149.660156 176.03125 C 150.285156 175.566406 150.832031 175.109375 151.285156 174.664062 C 152.703125 173.277344 153.347656 171.945312 153.195312 170.714844 Z M 92.90625 195.621094 C 92.828125 195.613281 92.746094 195.597656 92.671875 195.589844 C 92.375 195.546875 92.085938 195.507812 91.800781 195.46875 C 91.738281 195.464844 91.679688 195.457031 91.617188 195.449219 C 91.398438 195.421875 91.179688 195.394531 90.964844 195.371094 C 90.863281 195.359375 90.769531 195.351562 90.671875 195.339844 C 90.496094 195.320312 90.320312 195.304688 90.144531 195.289062 C 90.042969 195.277344 89.945312 195.269531 89.84375 195.261719 C 89.675781 195.246094 89.507812 195.234375 89.34375 195.21875 C 89.246094 195.214844 89.152344 195.207031 89.058594 195.199219 C 88.882812 195.1875 88.710938 195.179688 88.539062 195.167969 C 88.460938 195.164062 88.382812 195.160156 88.304688 195.15625 C 88.058594 195.144531 87.8125 195.136719 87.574219 195.128906 C 86.6875 195.105469 85.800781 195.09375 84.917969 195.09375 C 84.871094 195.09375 84.824219 195.09375 84.777344 195.09375 C 84.5625 195.09375 84.351562 195.101562 84.136719 195.101562 C 83.601562 195.105469 83.0625 195.109375 82.53125 195.121094 L 81.613281 190.710938 C 83.699219 190.796875 85.832031 190.84375 87.996094 190.84375 C 89.457031 190.84375 90.929688 190.820312 92.410156 190.78125 L 93.433594 195.699219 C 93.253906 195.671875 93.078125 195.648438 92.90625 195.621094 Z M 70.453125 111.585938 C 72.949219 111.066406 74.726562 111.113281 75.496094 111.285156 C 74.859375 111.746094 73.25 112.496094 70.75 113.015625 C 68.253906 113.535156 66.476562 113.488281 65.707031 113.316406 C 66.34375 112.851562 67.953125 112.105469 70.453125 111.585938 Z M 65.789062 115.082031 C 66.195312 115.144531 66.636719 115.167969 67.085938 115.167969 C 68.75 115.167969 70.519531 114.832031 71.105469 114.710938 C 72.78125 114.363281 74.332031 113.859375 75.472656 113.296875 C 75.625 113.222656 75.867188 113.101562 76.128906 112.941406 L 87.242188 166.308594 C 86.890625 166.71875 85.179688 167.644531 82.25 168.25 C 79.328125 168.859375 77.390625 168.691406 76.902344 168.453125 Z M 60.378906 187.699219 C 65.125 189.203125 72.054688 190.210938 79.824219 190.628906 L 80.773438 195.183594 C 71.324219 195.59375 65.21875 197.320312 63 198.058594 Z M 147.835938 197.214844 C 146.414062 195.933594 143.972656 194.21875 140.308594 193.179688 C 134.664062 191.574219 124.910156 191.347656 110.425781 199.3125 C 108.835938 198.960938 107.265625 198.597656 105.71875 198.242188 C 102.039062 197.390625 98.5625 196.59375 95.269531 196.011719 L 94.167969 190.722656 C 98.21875 190.566406 102.277344 190.257812 106.191406 189.777344 C 124.1875 187.578125 140.136719 182.117188 147.921875 177.21875 Z M 147.835938 197.214844 " fill-opacity="1" fill-rule="nonzero"/><path fill="#fcc28a" d="M 113.039062 199.882812 C 125.941406 193.207031 134.621094 193.398438 139.703125 194.808594 C 143.738281 195.925781 146.179688 197.964844 147.28125 199.085938 C 136.449219 203.902344 124.101562 202.222656 113.039062 199.882812 Z M 147.820312 200.738281 L 147.796875 207.070312 C 147.796875 207.089844 147.796875 207.113281 147.796875 207.132812 C 148.046875 210.878906 138.761719 215.167969 123.558594 218.320312 L 123.910156 220.015625 C 130.550781 218.636719 140.21875 216.167969 145.582031 212.652344 L 146.527344 266.710938 C 146.527344 266.726562 146.527344 266.742188 146.53125 266.761719 C 146.894531 271.519531 133.765625 276.746094 115.984375 278.917969 C 98.207031 281.09375 84.199219 279.183594 83.402344 274.472656 C 83.402344 274.457031 83.398438 274.441406 83.394531 274.425781 L 71.261719 221.742188 C 75.78125 223.324219 82.523438 223.769531 88.640625 223.769531 C 88.941406 223.769531 89.246094 223.769531 89.542969 223.765625 L 89.53125 222.035156 C 76.488281 222.128906 68.363281 220.210938 67.773438 216.910156 C 67.769531 216.890625 67.765625 216.871094 67.761719 216.851562 L 63.429688 199.746094 C 65.484375 199.058594 71.929688 197.195312 81.859375 196.875 C 83.710938 196.8125 85.617188 196.808594 87.53125 196.859375 C 88.351562 196.882812 89.222656 196.9375 90.148438 197.027344 C 90.886719 197.101562 91.660156 197.191406 92.480469 197.308594 C 92.519531 197.316406 92.558594 197.320312 92.601562 197.328125 C 93.175781 197.410156 93.773438 197.503906 94.394531 197.613281 C 97.808594 198.191406 101.460938 199.035156 105.328125 199.929688 C 106.980469 200.308594 108.664062 200.699219 110.371094 201.074219 C 117 202.542969 124.171875 203.914062 131.3125 203.914062 C 136.929688 203.914062 142.527344 203.0625 147.820312 200.738281 Z M 99.195312 221.644531 L 99.320312 223.375 C 104.667969 222.996094 110.347656 222.347656 115.738281 221.5 L 115.46875 219.789062 C 110.125 220.632812 104.496094 221.273438 99.195312 221.644531 Z M 87.273438 248.34375 C 89.242188 248.101562 90.644531 246.3125 90.402344 244.347656 C 90.164062 242.378906 88.371094 240.980469 86.402344 241.21875 C 84.429688 241.460938 83.03125 243.25 83.269531 245.21875 C 83.511719 247.183594 85.304688 248.582031 87.273438 248.34375 Z M 95.269531 269.679688 C 95.03125 267.714844 93.238281 266.316406 91.269531 266.554688 C 89.300781 266.796875 87.898438 268.585938 88.136719 270.550781 C 88.378906 272.519531 90.171875 273.917969 92.140625 273.679688 C 94.109375 273.4375 95.511719 271.648438 95.269531 269.679688 Z M 97.199219 255.875 C 96.957031 253.90625 95.164062 252.507812 93.195312 252.75 C 91.226562 252.988281 89.824219 254.78125 90.066406 256.746094 C 90.308594 258.714844 92.101562 260.113281 94.070312 259.871094 C 96.039062 259.632812 97.441406 257.839844 97.199219 255.875 Z M 102.574219 255.570312 C 104.542969 255.328125 105.945312 253.539062 105.703125 251.574219 C 105.460938 249.605469 103.667969 248.207031 101.699219 248.445312 C 99.730469 248.6875 98.328125 250.476562 98.570312 252.445312 C 98.8125 254.410156 100.601562 255.808594 102.574219 255.570312 Z M 109.566406 262.53125 C 109.324219 260.5625 107.53125 259.164062 105.5625 259.402344 C 103.59375 259.644531 102.191406 261.433594 102.433594 263.402344 C 102.671875 265.367188 104.464844 266.765625 106.433594 266.527344 C 108.40625 266.285156 109.804688 264.496094 109.566406 262.53125 Z M 112.378906 253.367188 C 112.621094 255.332031 114.414062 256.730469 116.382812 256.492188 C 118.351562 256.25 119.753906 254.460938 119.511719 252.496094 C 119.269531 250.527344 117.480469 249.128906 115.511719 249.367188 C 113.539062 249.609375 112.140625 251.398438 112.378906 253.367188 Z M 120.15625 268.464844 C 119.917969 266.496094 118.125 265.097656 116.15625 265.339844 C 114.1875 265.578125 112.785156 267.367188 113.023438 269.335938 C 113.265625 271.300781 115.058594 272.703125 117.027344 272.460938 C 118.996094 272.222656 120.398438 270.429688 120.15625 268.464844 Z M 133.761719 240.914062 C 134.003906 242.878906 135.796875 244.28125 137.765625 244.039062 C 139.734375 243.796875 141.136719 242.007812 140.894531 240.042969 C 140.65625 238.074219 138.863281 236.675781 136.894531 236.917969 C 134.921875 237.15625 133.523438 238.945312 133.761719 240.914062 Z M 131.835938 263.421875 C 132.078125 265.390625 133.871094 266.789062 135.839844 266.546875 C 137.808594 266.308594 139.210938 264.519531 138.96875 262.550781 C 138.730469 260.585938 136.9375 259.183594 134.96875 259.425781 C 132.996094 259.664062 131.597656 261.457031 131.835938 263.421875 Z M 124.441406 254.476562 C 124.679688 256.441406 126.472656 257.839844 128.441406 257.601562 C 130.414062 257.359375 131.8125 255.570312 131.574219 253.605469 C 131.332031 251.636719 129.539062 250.238281 127.570312 250.476562 C 125.601562 250.71875 124.199219 252.507812 124.441406 254.476562 Z M 122.605469 257.320312 C 120.636719 257.5625 119.234375 259.351562 119.476562 261.316406 C 119.71875 263.285156 121.511719 264.683594 123.480469 264.445312 C 125.449219 264.203125 126.851562 262.414062 126.609375 260.445312 C 126.367188 258.480469 124.578125 257.082031 122.605469 257.320312 Z M 149.15625 208.96875 C 149.125 209.039062 149.085938 209.109375 149.050781 209.179688 C 149.089844 209.140625 149.132812 209.101562 149.167969 209.0625 Z M 149.15625 208.96875 " fill-opacity="1" fill-rule="nonzero"/><path fill="#efdeb6" d="M 151.476562 170.925781 L 150.621094 163.949219 C 147.875 166.871094 141.453125 169.363281 136.167969 171.027344 L 135.644531 169.375 C 143.742188 166.828125 149 164.054688 150.074219 161.765625 C 150.222656 161.453125 150.28125 161.167969 150.246094 160.894531 C 150.226562 160.742188 150.183594 160.601562 150.113281 160.457031 C 149.9375 160.097656 149.59375 159.738281 149.085938 159.390625 C 148.980469 159.308594 148.890625 159.257812 148.800781 159.203125 C 148.515625 159.023438 148.175781 158.847656 147.789062 158.675781 C 147.539062 158.558594 147.265625 158.445312 146.960938 158.332031 C 146.054688 157.992188 145 157.6875 143.832031 157.429688 C 143.246094 157.296875 142.605469 157.167969 141.925781 157.046875 C 141.480469 156.972656 141.019531 156.898438 140.539062 156.824219 C 139.363281 156.652344 138.089844 156.503906 136.742188 156.378906 C 136.175781 156.328125 135.597656 156.277344 135 156.238281 C 133.296875 156.113281 131.449219 156.03125 129.503906 155.984375 C 129.496094 155.984375 129.484375 155.980469 129.476562 155.980469 C 128.859375 155.964844 128.234375 155.957031 127.597656 155.949219 C 127.574219 155.949219 127.550781 155.949219 127.527344 155.949219 C 127.523438 155.949219 127.519531 155.949219 127.519531 155.949219 C 126.855469 155.945312 126.183594 155.941406 125.5 155.945312 C 124.8125 155.949219 124.113281 155.957031 123.402344 155.96875 C 123.371094 155.96875 123.335938 155.96875 123.304688 155.96875 C 122.652344 155.980469 122 155.996094 121.339844 156.015625 C 121.308594 156.015625 121.28125 156.015625 121.25 156.019531 C 120.519531 156.035156 119.785156 156.066406 119.046875 156.09375 C 116.457031 156.203125 113.761719 156.367188 111.035156 156.578125 C 111.007812 156.582031 110.976562 156.585938 110.949219 156.585938 C 110.914062 156.589844 110.875 156.59375 110.839844 156.597656 C 107.628906 156.855469 104.359375 157.1875 101.113281 157.585938 C 97.835938 157.984375 94.542969 158.457031 91.328125 158.984375 C 91.328125 158.984375 91.328125 158.984375 91.324219 158.984375 C 90.082031 159.191406 88.847656 159.410156 87.625 159.632812 L 88.972656 166.109375 C 89.246094 167.410156 87.535156 168.253906 86.976562 168.53125 C 85.835938 169.09375 84.28125 169.597656 82.605469 169.945312 C 81.167969 170.242188 79.773438 170.402344 78.605469 170.402344 C 78.410156 170.402344 78.21875 170.394531 78.035156 170.386719 C 77.410156 170.355469 75.507812 170.261719 75.238281 168.960938 L 73.925781 162.667969 C 73.679688 162.734375 73.425781 162.800781 73.179688 162.867188 C 73.167969 162.871094 73.15625 162.875 73.140625 162.875 C 71.308594 163.378906 69.570312 163.898438 67.972656 164.414062 C 67.953125 164.421875 67.925781 164.429688 67.90625 164.4375 C 66.535156 164.882812 65.253906 165.335938 64.0625 165.792969 C 63.585938 165.972656 63.121094 166.15625 62.675781 166.339844 C 62.226562 166.527344 61.796875 166.707031 61.375 166.890625 C 60.746094 167.171875 60.15625 167.449219 59.621094 167.71875 C 58.546875 168.253906 57.601562 168.800781 56.800781 169.351562 C 56.535156 169.535156 56.292969 169.710938 56.089844 169.875 C 55.746094 170.144531 55.457031 170.398438 55.226562 170.636719 C 55.152344 170.714844 55.078125 170.785156 55.015625 170.863281 C 54.585938 171.351562 54.335938 171.78125 54.257812 172.164062 C 54.222656 172.332031 54.214844 172.476562 54.230469 172.621094 C 54.265625 172.898438 54.386719 173.164062 54.609375 173.433594 C 55.386719 174.390625 58.007812 176.136719 66.785156 177.042969 L 66.605469 178.765625 C 60.867188 178.171875 56.847656 177.136719 54.605469 175.683594 L 55.460938 182.65625 C 55.535156 183.257812 56.214844 183.945312 57.375 184.597656 C 63.988281 188.328125 85.097656 190.613281 105.980469 188.0625 C 126.558594 185.546875 144.886719 178.507812 150.070312 173.425781 C 151.070312 172.449219 151.554688 171.585938 151.476562 170.925781 Z M 110.246094 176.742188 L 109.988281 175.027344 C 116.191406 174.09375 122.058594 172.957031 127.429688 171.648438 L 127.839844 173.328125 C 122.417969 174.652344 116.5 175.796875 110.246094 176.742188 Z M 110.246094 176.742188 " fill-opacity="1" fill-rule="nonzero"/><g fill="#000000" fill-opacity="1"><g transform="translate(155.454486, 207.27482)"><g><path d="M 37.4375 -25.796875 C 37.347656 -27.53125 36.808594 -28.457031 35.851562 -28.546875 C 32.859375 -28.90625 27.441406 -18.734375 22.5625 -4.011719 C 24.628906 -18.644531 23.339844 -21.097656 21.875 -21.425781 C 21.15625 -21.574219 19.03125 -22.054688 13.257812 -8.769531 C 10.625 -2.753906 7.898438 4.667969 5.625 11.910156 C 7.632812 2.125 11.609375 -15.261719 12.925781 -20.738281 C 13.765625 -24.269531 13.585938 -26.363281 12.417969 -27.113281 C 11.789062 -27.5 10.625 -27.652344 8.558594 -26.066406 C 6.464844 -24.449219 4.160156 -21.546875 2.515625 -18.523438 C 1.40625 -16.457031 -0.300781 -12.570312 0.6875 -9.636719 C 1.617188 -6.882812 4.488281 -6.253906 6.734375 -6.222656 C 7.0625 -6.222656 7.300781 -6.464844 7.300781 -6.792969 C 7.332031 -7.121094 7.0625 -7.363281 6.734375 -7.363281 C 4.011719 -7.421875 2.363281 -8.289062 1.765625 -10.023438 C 0.417969 -14.09375 5.328125 -22.085938 9.277344 -25.167969 C 10.414062 -26.035156 11.371094 -26.421875 11.820312 -26.125 C 12.058594 -25.976562 12.777344 -25.136719 11.789062 -21.007812 C 11.25 -18.703125 8.949219 -8.828125 6.824219 0.808594 C 5.6875 6.042969 4.789062 10.234375 4.191406 13.226562 C 3.859375 14.960938 3.621094 16.308594 3.472656 17.238281 C 3.261719 18.644531 3.203125 19.242188 3.800781 19.421875 C 3.859375 19.453125 3.921875 19.480469 4.011719 19.480469 C 4.488281 19.480469 4.726562 18.824219 4.996094 18.105469 C 4.996094 18.074219 4.996094 18.074219 5.027344 18.042969 C 7.511719 9.128906 10.984375 -0.71875 14.304688 -8.320312 C 19.628906 -20.589844 21.546875 -20.320312 21.636719 -20.289062 C 21.664062 -20.289062 22.59375 -20.019531 22.472656 -14.933594 C 22.355469 -10.832031 21.605469 -4.578125 20.230469 3.589844 C 20.167969 3.890625 20.378906 4.191406 20.679688 4.25 C 20.976562 4.308594 21.277344 4.160156 21.335938 3.859375 C 24.835938 -8.199219 28.039062 -15.679688 30.132812 -19.839844 C 33.15625 -25.855469 35.070312 -27.410156 35.699219 -27.410156 C 35.699219 -27.410156 35.730469 -27.410156 35.730469 -27.410156 C 35.96875 -27.382812 36.238281 -26.871094 36.300781 -25.734375 C 36.539062 -21.964844 34.742188 -12.089844 33.15625 -3.382812 C 30.433594 11.550781 30.164062 14.246094 31.332031 14.664062 C 32.050781 14.933594 32.617188 14.09375 33.097656 13.257812 C 33.246094 12.988281 33.15625 12.628906 32.886719 12.480469 C 32.617188 12.328125 32.257812 12.417969 32.078125 12.6875 C 31.988281 12.867188 31.898438 13.015625 31.808594 13.136719 C 31.75 10.832031 33.15625 3.140625 34.292969 -3.171875 C 35.96875 -12.390625 37.707031 -21.90625 37.4375 -25.796875 Z M 37.4375 -25.796875 "/></g></g></g><g fill="#000000" fill-opacity="1"><g transform="translate(193.360463, 207.27482)"><g><path d="M 14.632812 -6.582031 C 14.453125 -6.851562 14.09375 -6.914062 13.824219 -6.734375 C 11.25 -5.058594 8.617188 -3.203125 6.105469 -0.867188 C 6.464844 -3.082031 6.824219 -5.445312 7.152344 -7.929688 C 7.210938 -8.199219 7.03125 -8.46875 6.761719 -8.558594 C 6.523438 -8.648438 6.222656 -8.527344 6.105469 -8.289062 C 5.507812 -7.273438 4.191406 -5.175781 3.023438 -3.769531 C 2.601562 -3.261719 2.183594 -2.992188 1.976562 -3.140625 C 1.464844 -3.441406 1.105469 -5.507812 2.273438 -8.347656 C 2.394531 -8.648438 2.246094 -8.976562 1.976562 -9.097656 C 1.675781 -9.21875 1.347656 -9.066406 1.226562 -8.769531 C 0 -5.777344 0.0585938 -2.933594 1.40625 -2.15625 C 1.734375 -1.914062 2.691406 -1.585938 3.890625 -3.023438 C 4.519531 -3.769531 5.117188 -4.609375 5.65625 -5.417969 C 5.355469 -3.351562 5.058594 -1.375 4.726562 0.507812 C 2.214844 3.082031 -0.148438 6.195312 -2.183594 10.144531 C -5.597656 16.699219 -6.222656 23.96875 -4.519531 26.066406 C -4.191406 26.484375 -3.769531 26.691406 -3.320312 26.691406 C -3.171875 26.691406 -3.050781 26.664062 -2.902344 26.632812 C -0.957031 26.066406 0.777344 21.753906 1.914062 18.222656 C 3.320312 13.824219 4.609375 8.078125 5.804688 1.046875 C 8.589844 -1.734375 11.550781 -3.890625 14.453125 -5.777344 C 14.722656 -5.953125 14.8125 -6.3125 14.632812 -6.582031 Z M 0.808594 17.863281 C -1.347656 24.6875 -2.902344 25.4375 -3.203125 25.527344 C -3.320312 25.554688 -3.441406 25.554688 -3.621094 25.347656 C -4.699219 24.03125 -4.789062 17.65625 -1.167969 10.652344 C 0.507812 7.453125 2.363281 4.816406 4.367188 2.574219 C 3.292969 8.769531 2.09375 13.886719 0.808594 17.863281 Z M 0.808594 17.863281 "/></g></g></g><g fill="#000000" fill-opacity="1"><g transform="translate(206.614094, 207.27482)"><g><path d="M 24.6875 -12.238281 C 23.550781 -13.644531 21.996094 -14.542969 20.109375 -14.960938 C 20.320312 -15.203125 20.5 -15.441406 20.679688 -15.652344 C 22.59375 -18.222656 25.347656 -23.042969 22.355469 -26.632812 C 20.378906 -29.027344 16.339844 -30.042969 12.269531 -29.445312 C 12.269531 -29.507812 12.300781 -29.535156 12.300781 -29.597656 C 12.359375 -29.894531 12.148438 -30.195312 11.820312 -30.253906 C 11.519531 -30.3125 11.222656 -30.105469 11.160156 -29.773438 C 11.132812 -29.597656 11.101562 -29.417969 11.070312 -29.238281 C 9.90625 -28.96875 8.769531 -28.578125 7.660156 -28.039062 C 2.753906 -25.644531 0.628906 -21.21875 1.796875 -15.859375 C 1.855469 -15.5625 2.183594 -15.351562 2.484375 -15.441406 C 2.78125 -15.5 2.992188 -15.800781 2.933594 -16.128906 C 1.855469 -20.886719 3.769531 -24.867188 8.167969 -27.023438 C 9.039062 -27.441406 9.90625 -27.742188 10.832031 -27.980469 C 10.234375 -24.925781 9.367188 -20.617188 8.378906 -15.769531 C 7.960938 -13.675781 7.570312 -11.730469 7.183594 -9.90625 C 6.792969 -9.277344 6.492188 -8.589844 6.3125 -7.871094 C 6.164062 -7.300781 6.375 -6.972656 6.554688 -6.792969 C 2.035156 15.800781 2.273438 16.90625 3.230469 17.207031 C 3.292969 17.238281 3.382812 17.238281 3.441406 17.238281 C 4.011719 17.238281 4.429688 16.488281 5.058594 14.960938 C 5.175781 14.664062 5.027344 14.335938 4.726562 14.214844 C 4.429688 14.09375 4.101562 14.214844 3.980469 14.511719 C 3.949219 14.632812 3.890625 14.722656 3.859375 14.8125 C 4.191406 11.191406 5.953125 2.125 7.691406 -6.554688 C 10.203125 -6.851562 15.800781 -10.445312 19.210938 -13.945312 C 21.128906 -13.707031 22.683594 -12.898438 23.789062 -11.519531 C 25.855469 -8.949219 26.035156 -4.789062 24.238281 -0.6875 C 21.484375 5.625 15.203125 9.726562 7.390625 10.292969 C 7.0625 10.324219 6.824219 10.59375 6.851562 10.921875 C 6.882812 11.222656 7.121094 11.460938 7.421875 11.460938 C 7.453125 11.460938 7.453125 11.460938 7.480469 11.460938 C 15.710938 10.863281 22.382812 6.492188 25.316406 -0.238281 C 27.261719 -4.726562 27.023438 -9.335938 24.6875 -12.238281 Z M 7.929688 -7.75 C 8.050781 -8.347656 8.167969 -8.917969 8.289062 -9.515625 C 9.816406 -11.910156 12.6875 -13.257812 15.230469 -13.765625 C 16.101562 -13.914062 16.90625 -14.003906 17.6875 -14.035156 C 14.273438 -10.773438 9.695312 -8.230469 7.929688 -7.75 Z M 18.761719 -15.140625 C 17.597656 -15.230469 16.339844 -15.140625 14.992188 -14.871094 C 12.480469 -14.394531 10.324219 -13.316406 8.738281 -11.820312 C 9.007812 -13.105469 9.277344 -14.363281 9.515625 -15.53125 C 10.5625 -20.648438 11.460938 -25.167969 12.058594 -28.25 C 15.832031 -28.878906 19.691406 -28.039062 21.457031 -25.914062 C 23.3125 -23.671875 22.683594 -20.289062 19.75 -16.339844 C 19.453125 -15.949219 19.121094 -15.53125 18.761719 -15.140625 Z M 18.761719 -15.140625 "/></g></g></g><g fill="#000000" fill-opacity="1"><g transform="translate(235.903712, 207.27482)"><g><path d="M 11.910156 -6.464844 C 11.640625 -6.613281 11.28125 -6.523438 11.132812 -6.253906 C 8.289062 -1.707031 5.894531 0.328125 5.386719 0.148438 C 5.386719 0.148438 4.789062 -0.179688 5.355469 -3.621094 C 5.566406 -4.789062 5.65625 -5.445312 5.085938 -5.6875 C 4.546875 -5.894531 4.21875 -5.445312 3.589844 -4.546875 C 3.082031 -3.832031 2.394531 -2.871094 1.644531 -2.214844 C 1.554688 -2.15625 1.226562 -1.855469 1.078125 -1.976562 C 0.628906 -2.335938 0.539062 -4.277344 1.585938 -6.074219 C 1.765625 -6.34375 1.644531 -6.703125 1.375 -6.882812 C 1.105469 -7.03125 0.75 -6.941406 0.597656 -6.671875 C -0.597656 -4.578125 -0.71875 -1.976562 0.328125 -1.105469 C 0.597656 -0.867188 1.347656 -0.449219 2.394531 -1.316406 C 3.082031 -1.914062 3.679688 -2.691406 4.160156 -3.351562 C 3.742188 -0.570312 3.980469 0.839844 4.96875 1.226562 C 5.117188 1.285156 5.265625 1.285156 5.386719 1.285156 C 7.660156 1.285156 11.339844 -4.457031 12.089844 -5.65625 C 12.269531 -5.925781 12.179688 -6.285156 11.910156 -6.464844 Z M 11.910156 -6.464844 "/></g></g></g><g fill="#000000" fill-opacity="1"><g transform="translate(246.614317, 207.27482)"><g><path d="M 12.628906 -6.703125 C 12.359375 -6.851562 12 -6.761719 11.820312 -6.492188 C 10.234375 -3.921875 7.75 -1.617188 4.757812 0.148438 C 6.042969 -1.617188 6.671875 -3.621094 6.644531 -4.847656 C 6.613281 -5.984375 6.074219 -6.3125 5.746094 -6.402344 C 4.816406 -6.703125 3.589844 -5.777344 2.035156 -3.5625 C 1.496094 -2.84375 0.957031 -1.886719 0.390625 -0.75 C 1.285156 -4.847656 2.515625 -10.203125 3.441406 -14.214844 C 7.421875 -21.367188 9.457031 -26.753906 8.617188 -27.921875 C 8.4375 -28.1875 8.140625 -28.277344 7.839844 -28.21875 C 6.554688 -27.980469 4.546875 -23.609375 3.203125 -18.074219 C 2.960938 -17.238281 2.691406 -16.011719 2.363281 -14.601562 C 2.335938 -14.542969 2.335938 -14.484375 2.304688 -14.425781 C 0.6875 -7.480469 -1.945312 4.25 -1.976562 5.238281 C -2.003906 5.535156 -1.796875 5.777344 -1.496094 5.835938 C -1.464844 5.835938 -1.4375 5.835938 -1.40625 5.835938 C -1.167969 5.835938 -0.925781 5.6875 -0.867188 5.417969 C -0.597656 4.636719 -0.328125 3.859375 -0.03125 3.082031 C 0.121094 3.292969 0.390625 3.410156 0.660156 3.320312 C 3.742188 2.214844 9.425781 -0.417969 12.808594 -5.894531 C 12.957031 -6.164062 12.898438 -6.523438 12.628906 -6.703125 Z M 7.632812 -26.574219 C 7.390625 -25.375 6.554688 -22.804688 4.546875 -18.761719 C 5.6875 -23.101562 6.914062 -25.554688 7.632812 -26.574219 Z M 0.300781 2.214844 C 1.167969 0.148438 2.125 -1.734375 2.960938 -2.902344 C 4.578125 -5.175781 5.296875 -5.296875 5.386719 -5.296875 C 5.445312 -5.238281 5.597656 -4.847656 5.417969 -3.949219 C 5.027344 -2.09375 3.382812 1.078125 0.300781 2.214844 Z M 0.300781 2.214844 "/></g></g></g><g fill="#000000" fill-opacity="1"><g transform="translate(257.863446, 207.27482)"><g><path d="M 12.628906 -6.703125 C 12.359375 -6.851562 12 -6.761719 11.820312 -6.492188 C 10.234375 -3.921875 7.75 -1.617188 4.757812 0.148438 C 6.042969 -1.617188 6.671875 -3.621094 6.644531 -4.847656 C 6.613281 -5.984375 6.074219 -6.3125 5.746094 -6.402344 C 4.816406 -6.703125 3.589844 -5.777344 2.035156 -3.5625 C 1.496094 -2.84375 0.957031 -1.886719 0.390625 -0.75 C 1.285156 -4.847656 2.515625 -10.203125 3.441406 -14.214844 C 7.421875 -21.367188 9.457031 -26.753906 8.617188 -27.921875 C 8.4375 -28.1875 8.140625 -28.277344 7.839844 -28.21875 C 6.554688 -27.980469 4.546875 -23.609375 3.203125 -18.074219 C 2.960938 -17.238281 2.691406 -16.011719 2.363281 -14.601562 C 2.335938 -14.542969 2.335938 -14.484375 2.304688 -14.425781 C 0.6875 -7.480469 -1.945312 4.25 -1.976562 5.238281 C -2.003906 5.535156 -1.796875 5.777344 -1.496094 5.835938 C -1.464844 5.835938 -1.4375 5.835938 -1.40625 5.835938 C -1.167969 5.835938 -0.925781 5.6875 -0.867188 5.417969 C -0.597656 4.636719 -0.328125 3.859375 -0.03125 3.082031 C 0.121094 3.292969 0.390625 3.410156 0.660156 3.320312 C 3.742188 2.214844 9.425781 -0.417969 12.808594 -5.894531 C 12.957031 -6.164062 12.898438 -6.523438 12.628906 -6.703125 Z M 7.632812 -26.574219 C 7.390625 -25.375 6.554688 -22.804688 4.546875 -18.761719 C 5.6875 -23.101562 6.914062 -25.554688 7.632812 -26.574219 Z M 0.300781 2.214844 C 1.167969 0.148438 2.125 -1.734375 2.960938 -2.902344 C 4.578125 -5.175781 5.296875 -5.296875 5.386719 -5.296875 C 5.445312 -5.238281 5.597656 -4.847656 5.417969 -3.949219 C 5.027344 -2.09375 3.382812 1.078125 0.300781 2.214844 Z M 0.300781 2.214844 "/></g></g></g><g fill="#000000" fill-opacity="1"><g transform="translate(269.112576, 207.27482)"><g><path d="M 8.796875 -28.039062 C 8.589844 -28.308594 8.289062 -28.429688 7.988281 -28.398438 C 6.285156 -28.097656 4.457031 -21.726562 3.949219 -19.78125 C 2.453125 -14.066406 0.570312 -5.953125 -0.957031 1.316406 C -1.675781 4.757812 -2.246094 7.660156 -2.601562 9.753906 C -3.203125 13.285156 -3.113281 13.734375 -2.542969 13.886719 C -2.484375 13.914062 -2.425781 13.914062 -2.363281 13.914062 C -1.824219 13.914062 -1.554688 13.195312 -1.285156 12.417969 C -1.195312 12.121094 -1.347656 11.789062 -1.644531 11.699219 C -1.675781 11.671875 -1.707031 11.671875 -1.734375 11.671875 C -1.105469 7.363281 1.464844 -5.175781 4.101562 -15.679688 C 4.101562 -15.710938 4.128906 -15.742188 4.160156 -15.769531 C 8.050781 -21.933594 9.574219 -26.84375 8.796875 -28.039062 Z M 5.117188 -19.71875 C 6.253906 -23.941406 7.273438 -25.976562 7.808594 -26.8125 C 7.691406 -25.707031 7.03125 -23.3125 5.117188 -19.71875 Z M 5.117188 -19.71875 "/></g></g></g><g fill="#000000" fill-opacity="1"><g transform="translate(273.660091, 207.27482)"><g><path d="M 10.113281 -6.671875 C 9.84375 -6.851562 9.484375 -6.792969 9.308594 -6.523438 C 7.0625 -3.382812 5.238281 -1.40625 3.441406 -0.121094 C 2.542969 0.507812 1.675781 0.628906 1.105469 0.210938 C 0.75 -0.0585938 -0.359375 -1.257812 0.925781 -5.445312 C 3.832031 -7.839844 5.417969 -10.113281 4.996094 -11.3125 C 4.847656 -11.671875 4.488281 -11.910156 4.101562 -11.910156 C 2.902344 -11.878906 1.078125 -9.816406 -0.121094 -5.953125 C -1.585938 -1.195312 -0.390625 0.539062 0.449219 1.136719 C 0.867188 1.464844 1.347656 1.617188 1.886719 1.617188 C 2.574219 1.617188 3.351562 1.347656 4.101562 0.808594 C 6.015625 -0.570312 7.898438 -2.601562 10.234375 -5.867188 C 10.414062 -6.132812 10.355469 -6.492188 10.113281 -6.671875 Z M 3.859375 -10.652344 C 3.742188 -10.175781 3.230469 -9.21875 1.824219 -7.78125 C 2.601562 -9.515625 3.441406 -10.355469 3.859375 -10.652344 Z M 3.859375 -10.652344 "/></g></g></g><g fill="#000000" fill-opacity="1"><g transform="translate(282.366195, 207.27482)"><g><path d="M 38.691406 -34.59375 C 38.601562 -34.890625 38.273438 -35.070312 37.976562 -34.953125 C 35.878906 -34.292969 32.679688 -33.335938 28.996094 -32.199219 C 23.132812 -30.433594 15.800781 -28.21875 10.113281 -26.335938 C 6.972656 -25.257812 4.636719 -24.417969 2.992188 -23.730469 C 0.300781 -22.59375 -0.179688 -22.054688 -0.148438 -21.457031 C -0.121094 -21.15625 0.0585938 -20.738281 0.867188 -20.589844 C 0.898438 -20.589844 0.925781 -20.589844 0.957031 -20.589844 C 1.226562 -20.589844 1.464844 -20.769531 1.527344 -21.039062 C 1.585938 -21.277344 1.464844 -21.515625 1.285156 -21.636719 C 2.066406 -22.113281 4.339844 -23.191406 11.101562 -25.4375 C 12.660156 -25.945312 14.304688 -26.484375 15.980469 -27.023438 C 15.023438 -23.070312 13.644531 -16.9375 12.210938 -10.472656 C 10.203125 -1.40625 7.601562 10.324219 6.195312 15.230469 C 6.195312 14.871094 6.253906 14.484375 6.285156 14.003906 C 6.3125 13.707031 6.074219 13.40625 5.746094 13.375 C 5.445312 13.347656 5.175781 13.585938 5.148438 13.914062 C 4.789062 17.777344 4.9375 18.402344 5.597656 18.492188 C 5.65625 18.492188 5.6875 18.523438 5.746094 18.523438 C 6.285156 18.523438 6.613281 17.894531 7.273438 15.621094 C 7.691406 14.09375 8.257812 11.941406 8.976562 9.007812 C 10.265625 3.589844 11.820312 -3.410156 13.347656 -10.234375 C 14.871094 -17.058594 16.308594 -23.550781 17.265625 -27.410156 C 21.367188 -28.699219 25.644531 -29.984375 29.328125 -31.09375 C 33.039062 -32.230469 36.210938 -33.1875 38.332031 -33.875 C 38.632812 -33.964844 38.8125 -34.292969 38.691406 -34.59375 Z M 38.691406 -34.59375 "/></g></g></g><g fill="#000000" fill-opacity="1"><g transform="translate(298.581694, 207.27482)"><g><path d="M 10.113281 -6.671875 C 9.84375 -6.851562 9.484375 -6.792969 9.308594 -6.523438 C 7.0625 -3.382812 5.238281 -1.40625 3.441406 -0.121094 C 2.542969 0.507812 1.675781 0.628906 1.105469 0.210938 C 0.75 -0.0585938 -0.359375 -1.257812 0.925781 -5.445312 C 3.832031 -7.839844 5.417969 -10.113281 4.996094 -11.3125 C 4.847656 -11.671875 4.488281 -11.910156 4.101562 -11.910156 C 2.902344 -11.878906 1.078125 -9.816406 -0.121094 -5.953125 C -1.585938 -1.195312 -0.390625 0.539062 0.449219 1.136719 C 0.867188 1.464844 1.347656 1.617188 1.886719 1.617188 C 2.574219 1.617188 3.351562 1.347656 4.101562 0.808594 C 6.015625 -0.570312 7.898438 -2.601562 10.234375 -5.867188 C 10.414062 -6.132812 10.355469 -6.492188 10.113281 -6.671875 Z M 3.859375 -10.652344 C 3.742188 -10.175781 3.230469 -9.21875 1.824219 -7.78125 C 2.601562 -9.515625 3.441406 -10.355469 3.859375 -10.652344 Z M 3.859375 -10.652344 "/></g></g></g><g fill="#000000" fill-opacity="1"><g transform="translate(307.287798, 207.27482)"><g><path d="M 12.507812 -6.644531 C 12.238281 -6.761719 11.878906 -6.644531 11.761719 -6.375 C 9.484375 -1.734375 7.78125 -0.269531 6.972656 -0.417969 C 6.644531 -0.480469 5.566406 -1.105469 5.296875 -6.34375 C 5.296875 -6.582031 5.117188 -6.792969 4.90625 -6.851562 C 4.667969 -6.914062 4.398438 -6.851562 4.277344 -6.644531 C 4.101562 -6.433594 3.921875 -6.195312 3.742188 -5.925781 C 2.992188 -4.90625 2.003906 -3.53125 0.808594 -2.246094 C 0.628906 -2.035156 0.480469 -1.914062 0.390625 -1.855469 C 0.179688 -2.902344 1.285156 -6.914062 3.050781 -8.167969 C 3.5625 -8.527344 4.25 -8.796875 5.175781 -7.71875 C 5.386719 -7.480469 5.746094 -7.453125 5.984375 -7.660156 C 6.222656 -7.839844 6.253906 -8.230469 6.074219 -8.46875 C 4.9375 -9.785156 3.859375 -9.753906 3.140625 -9.515625 C 0.839844 -8.707031 -0.71875 -4.277344 -0.777344 -2.246094 C -0.808594 -1.40625 -0.570312 -0.867188 -0.0898438 -0.6875 C 0.660156 -0.390625 1.40625 -1.195312 1.644531 -1.464844 C 2.664062 -2.574219 3.589844 -3.769531 4.25 -4.699219 C 4.578125 -1.285156 5.386719 0.417969 6.734375 0.71875 C 6.851562 0.71875 6.972656 0.75 7.09375 0.75 C 9.128906 0.75 11.3125 -2.8125 12.777344 -5.867188 C 12.925781 -6.164062 12.808594 -6.492188 12.507812 -6.644531 Z M 12.507812 -6.644531 "/></g></g></g><g clip-path="url(#a3c436fca0)"><g clip-path="url(#7fcfed74a6)"><g clip-path="url(#94810fb0a9)"><path fill="#000000" d="M 106.640625 145.433594 C 104.957031 144.902344 103.132812 144.089844 101.59375 142.832031 C 94.644531 137.175781 89.75 130.101562 87.222656 121.472656 C 86.558594 119.210938 86.464844 116.871094 87.066406 114.546875 C 87.226562 113.917969 87.464844 113.320312 87.804688 112.773438 C 88.960938 110.914062 90.875 110.238281 92.9375 110.964844 C 94.175781 111.398438 95.226562 112.136719 96.171875 113.023438 C 98.808594 115.484375 100.621094 118.527344 102.203125 121.726562 C 103.484375 124.3125 104.511719 127.007812 105.484375 129.722656 C 106.792969 133.371094 108.125 137.019531 109.265625 140.730469 C 109.480469 141.433594 109.738281 142.128906 109.84375 142.863281 C 110.179688 145.21875 109.121094 146.023438 106.640625 145.433594 Z M 106.640625 145.433594 " fill-opacity="1" fill-rule="nonzero"/></g></g></g><g clip-path="url(#f8153d4b19)"><g clip-path="url(#d8ce529711)"><g clip-path="url(#31b6aa2646)"><path fill="#000000" d="M 140.945312 113.519531 C 139 121.097656 136.023438 128.289062 132.539062 135.269531 C 131.769531 136.816406 130.882812 138.328125 129.816406 139.710938 C 128.941406 140.847656 128.207031 140.730469 127.6875 139.375 C 127.214844 138.140625 127.011719 136.835938 126.933594 135.53125 C 126.40625 126.929688 127.222656 118.488281 129.996094 110.296875 C 130.988281 107.371094 132.28125 104.589844 134.097656 102.074219 C 134.855469 101.027344 135.679688 100.042969 136.757812 99.308594 C 138.925781 97.832031 140.988281 98.5 141.847656 100.984375 C 142.433594 102.6875 142.417969 104.457031 142.28125 106.21875 C 142.195312 107.3125 142.082031 108.40625 141.875 109.480469 C 141.625 110.835938 141.261719 112.175781 140.945312 113.519531 Z M 140.945312 113.519531 " fill-opacity="1" fill-rule="nonzero"/></g></g></g><g clip-path="url(#1d91d15a3d)"><g clip-path="url(#75cce9a220)"><g clip-path="url(#ea5b5b637d)"><path fill="#000000" d="M 139.296875 144.742188 C 139.9375 142.542969 141.152344 140.65625 142.625 138.957031 C 146.25 134.769531 150.101562 130.8125 154.804688 127.800781 C 156.433594 126.757812 158.171875 125.914062 160.035156 125.351562 C 160.628906 125.171875 161.230469 125.039062 161.859375 125.0625 C 163.25 125.117188 164.085938 126.148438 163.847656 127.523438 C 163.726562 128.242188 163.382812 128.871094 163.003906 129.476562 C 161.890625 131.246094 160.472656 132.761719 158.921875 134.136719 C 153.90625 138.566406 148.628906 142.625 142.53125 145.496094 C 142.015625 145.742188 141.492188 145.960938 140.972656 146.199219 C 140.457031 146.433594 139.9375 146.652344 139.441406 146.203125 C 138.949219 145.773438 139.152344 145.246094 139.296875 144.742188 Z M 139.296875 144.742188 " fill-opacity="1" fill-rule="nonzero"/></g></g></g><g clip-path="url(#631436566e)"><g clip-path="url(#e5ba8c0497)"><g clip-path="url(#507f167c52)"><path fill="#000000" d="M 112.230469 124.945312 C 112.40625 124.171875 112.804688 123.03125 113.5625 122.046875 C 114.910156 120.292969 116.773438 120.480469 117.746094 122.472656 C 118.320312 123.648438 118.496094 124.925781 118.644531 126.207031 C 119.011719 129.34375 118.839844 132.484375 118.714844 135.625 C 118.664062 136.886719 118.640625 138.152344 118.464844 139.402344 C 118.371094 140.035156 118.21875 140.617188 117.5 140.847656 C 116.722656 141.097656 116.078125 140.96875 115.5 140.34375 C 114.457031 139.210938 113.851562 137.84375 113.308594 136.445312 C 111.851562 132.652344 111.421875 128.582031 112.230469 124.945312 Z M 112.230469 124.945312 " fill-opacity="1" fill-rule="nonzero"/></g></g></g><g clip-path="url(#3d53abdb4d)"><g clip-path="url(#cf586caad8)"><g clip-path="url(#3bb099b5ea)"><path fill="#000000" d="M 132.773438 140.117188 C 133.691406 136.933594 135.226562 134.128906 137.726562 131.90625 C 138.300781 131.398438 138.933594 130.964844 139.652344 130.691406 C 140.210938 130.476562 140.78125 130.433594 141.269531 130.855469 C 141.738281 131.257812 141.765625 131.804688 141.65625 132.371094 C 141.488281 133.183594 141.113281 133.902344 140.648438 134.566406 C 138.8125 137.1875 136.675781 139.558594 134.492188 141.890625 C 134.320312 142.078125 134.082031 142.234375 133.847656 142.320312 C 133.089844 142.609375 132.417969 142.105469 132.511719 141.296875 C 132.546875 140.902344 132.679688 140.511719 132.773438 140.117188 Z M 132.773438 140.117188 " fill-opacity="1" fill-rule="nonzero"/></g></g></g><g clip-path="url(#60cb8d18ba)"><path fill="#c6302c" d="M 300.371094 230.957031 C 299.636719 227.164062 295.042969 227.101562 293.910156 230.644531 C 292.777344 227.101562 288.183594 227.164062 287.449219 230.957031 C 286.785156 234.394531 293.910156 239.820312 293.910156 239.820312 C 293.910156 239.820312 301.035156 234.394531 300.371094 230.957031 Z M 300.371094 230.957031 " fill-opacity="1" fill-rule="nonzero"/></g><g fill="#000000" fill-opacity="1"><g transform="translate(183.488474, 251.010204)"><g><path d="M 1.308594 0.261719 C 2.277344 0.261719 2.644531 0.128906 2.90625 -0.628906 C 3.007812 -0.914062 3.113281 -1.492188 3.269531 -2.199219 C 3.453125 -2.984375 3.953125 -8.269531 4.082031 -9.5 C 4.109375 -9.761719 4.214844 -9.996094 4.292969 -9.996094 C 4.371094 -9.996094 4.449219 -9.8125 4.5 -9.34375 C 4.605469 -8.296875 5.546875 -3.375 5.703125 -2.5625 C 5.863281 -1.753906 6.804688 -1.386719 7.40625 -1.386719 C 8.007812 -1.386719 8.921875 -1.753906 9.082031 -2.5625 C 9.238281 -3.375 10.179688 -8.296875 10.285156 -9.34375 C 10.335938 -9.8125 10.414062 -9.996094 10.492188 -9.996094 C 10.570312 -9.996094 10.675781 -9.761719 10.703125 -9.5 C 10.832031 -8.269531 11.332031 -2.984375 11.515625 -2.199219 C 11.671875 -1.492188 11.773438 -0.914062 11.878906 -0.628906 C 12.140625 0.128906 12.507812 0.261719 13.476562 0.261719 C 14.234375 0.261719 14.523438 -0.15625 14.523438 -0.707031 C 14.523438 -0.835938 14.496094 -0.996094 14.46875 -1.125 C 14.390625 -1.4375 14.15625 -3.53125 13.921875 -5.679688 C 13.582031 -8.921875 13.109375 -15.492188 12.902344 -16.929688 C 12.769531 -17.769531 12.558594 -18.554688 11.277344 -18.554688 C 9.890625 -18.554688 9.578125 -18.210938 9.367188 -17.246094 C 9.082031 -15.859375 8.871094 -14.863281 8.714844 -13.894531 L 7.691406 -7.773438 C 7.667969 -7.535156 7.535156 -7.40625 7.40625 -7.40625 C 7.273438 -7.40625 7.144531 -7.535156 7.089844 -7.773438 L 6.070312 -13.894531 C 5.914062 -14.863281 5.703125 -15.859375 5.417969 -17.246094 C 5.207031 -18.210938 4.894531 -18.554688 3.507812 -18.554688 C 2.222656 -18.554688 1.960938 -17.769531 1.882812 -16.929688 C 1.699219 -15.152344 1.464844 -8.921875 0.941406 -5.679688 C 0.601562 -3.558594 0.390625 -1.542969 0.3125 -1.125 C 0.289062 -0.941406 0.261719 -0.757812 0.261719 -0.601562 C 0.261719 -0.0273438 0.550781 0.261719 1.308594 0.261719 Z M 1.308594 0.261719 "/></g></g></g><g fill="#000000" fill-opacity="1"><g transform="translate(198.266721, 251.010204)"><g><path d="M 2.199219 -16.09375 C 2.589844 -16.09375 2.984375 -16.199219 3.167969 -16.40625 C 3.402344 -16.640625 3.507812 -17.007812 3.507812 -17.324219 C 3.507812 -17.636719 3.429688 -17.949219 3.246094 -18.1875 C 2.773438 -18.761719 2.328125 -18.917969 1.960938 -18.917969 C 1.675781 -18.917969 1.414062 -18.789062 1.203125 -18.65625 C 0.941406 -18.472656 0.757812 -18.054688 0.757812 -17.636719 C 0.757812 -17.296875 0.863281 -16.929688 1.046875 -16.589844 C 1.28125 -16.222656 1.753906 -16.09375 2.199219 -16.09375 Z M 2.199219 0 C 3.480469 0 3.558594 -0.679688 3.558594 -1.359375 C 3.558594 -1.359375 3.558594 -2.304688 3.507812 -2.824219 C 3.507812 -3.53125 3.480469 -4.214844 3.480469 -4.839844 L 3.507812 -6.933594 L 3.507812 -10.9375 C 3.507812 -11.722656 3.609375 -12.742188 3.609375 -13.582031 C 3.609375 -14.078125 3.480469 -14.707031 2.144531 -14.707031 C 0.835938 -14.707031 0.785156 -13.972656 0.785156 -13.320312 C 0.785156 -12.558594 0.890625 -11.644531 0.890625 -10.9375 C 0.914062 -9.105469 0.914062 -7.875 0.914062 -6.253906 C 0.914062 -5.179688 0.914062 -4.054688 0.890625 -2.824219 C 0.863281 -2.304688 0.863281 -1.359375 0.863281 -1.359375 C 0.863281 -0.472656 1.335938 0 2.199219 0 Z M 2.199219 0 "/></g></g></g><g fill="#000000" fill-opacity="1"><g transform="translate(202.660965, 251.010204)"><g><path d="M 2.199219 0.234375 C 3.429688 0.234375 3.507812 -0.417969 3.507812 -1.308594 C 3.507812 -1.308594 3.507812 -2.484375 3.480469 -3.167969 C 3.453125 -4.054688 3.453125 -4.894531 3.429688 -5.703125 L 3.453125 -8.792969 L 3.480469 -13.894531 C 3.480469 -14.914062 3.585938 -16.199219 3.585938 -17.246094 C 3.585938 -17.925781 3.453125 -18.5 2.121094 -18.5 C 0.835938 -18.5 0.785156 -17.769531 0.785156 -16.929688 C 0.785156 -15.960938 0.890625 -14.8125 0.890625 -13.894531 C 0.914062 -11.566406 0.941406 -9.578125 0.941406 -7.511719 C 0.941406 -6.148438 0.914062 -4.734375 0.890625 -3.167969 C 0.863281 -2.484375 0.863281 -1.308594 0.863281 -1.308594 C 0.863281 -0.417969 1.175781 0.234375 2.199219 0.234375 Z M 2.199219 0.234375 "/></g></g></g><g fill="#000000" fill-opacity="1"><g transform="translate(207.029049, 251.010204)"><g><path d="M 8.820312 -1.152344 C 8.453125 -1.910156 6.726562 -4.421875 5.285156 -6.960938 C 5.101562 -7.300781 4.917969 -7.5625 5.207031 -8.035156 C 7.039062 -11.09375 8.136719 -12.429688 8.453125 -12.980469 C 8.582031 -13.265625 8.609375 -13.371094 8.609375 -13.503906 C 8.609375 -13.972656 8.113281 -14.234375 7.71875 -14.3125 C 6.410156 -14.601562 6.042969 -13.921875 5.625 -13.292969 C 5.207031 -12.640625 3.871094 -10.519531 3.507812 -9.917969 L 3.53125 -11.695312 C 3.558594 -13.6875 3.609375 -16.355469 3.609375 -17.164062 C 3.609375 -17.714844 3.453125 -18.316406 2.144531 -18.316406 C 0.863281 -18.316406 0.785156 -17.558594 0.785156 -16.929688 C 0.785156 -16.144531 0.863281 -15.4375 0.863281 -11.171875 C 0.863281 -9.34375 0.890625 -7.773438 0.890625 -6.148438 C 0.890625 -5.101562 0.890625 -3.976562 0.863281 -2.746094 C 0.835938 -2.199219 0.835938 -1.019531 0.835938 -1.019531 C 0.835938 -0.210938 1.230469 0.105469 2.199219 0.105469 C 3.453125 0.105469 3.558594 -0.289062 3.558594 -1.019531 C 3.558594 -1.019531 3.558594 -2.199219 3.53125 -2.746094 C 3.507812 -3.453125 3.507812 -4.109375 3.507812 -4.734375 L 3.507812 -4.839844 C 3.847656 -4.316406 4.972656 -2.328125 5.992188 -0.734375 C 6.410156 -0.0507812 6.804688 0.128906 7.71875 0.128906 C 8.425781 0.128906 8.921875 -0.210938 8.921875 -0.734375 C 8.921875 -0.890625 8.898438 -0.996094 8.820312 -1.152344 Z M 8.820312 -1.152344 "/></g></g></g><g fill="#000000" fill-opacity="1"><g transform="translate(216.209865, 251.010204)"><g/></g></g><g fill="#000000" fill-opacity="1"><g transform="translate(221.964229, 251.010204)"><g><path d="M 7.929688 0 C 8.582031 0 9 -0.3125 9 -0.8125 C 9 -0.914062 9 -1.074219 8.949219 -1.257812 C 8.871094 -1.4375 8.738281 -3.453125 8.738281 -7.457031 C 8.921875 -12.195312 8.164062 -14.628906 4.710938 -14.628906 C 2.199219 -14.628906 0.914062 -12.980469 0.914062 -10.730469 C 0.914062 -10.074219 1.386719 -9.683594 2.199219 -9.683594 C 2.878906 -9.683594 3.429688 -9.96875 3.429688 -10.597656 C 3.429688 -11.515625 3.792969 -12.507812 4.710938 -12.507812 C 5.941406 -12.507812 6.386719 -11.148438 6.386719 -8.53125 C 5.992188 -8.738281 5.390625 -9.183594 4.394531 -9.183594 C 2.460938 -9.183594 0.785156 -7.457031 0.785156 -4.554688 C 0.785156 -1.675781 2.042969 -0.0507812 4.238281 -0.0507812 C 4.917969 -0.0507812 6.019531 -0.289062 6.488281 -0.707031 C 6.699219 -0.183594 7.066406 0 7.929688 0 Z M 4.683594 -2.25 C 3.609375 -2.25 3.0625 -3.246094 3.0625 -4.65625 C 3.0625 -6.042969 3.585938 -7.066406 4.761719 -7.066406 C 5.730469 -7.066406 5.992188 -6.019531 5.992188 -4.710938 C 5.992188 -3.21875 5.730469 -2.25 4.683594 -2.25 Z M 4.683594 -2.25 "/></g></g></g><g fill="#000000" fill-opacity="1"><g transform="translate(231.746638, 251.010204)"><g><path d="M 2.25 0.0273438 C 3.113281 0.0273438 3.375 -0.445312 3.375 -1.519531 C 3.296875 -3.429688 3.246094 -5.625 3.246094 -6.828125 C 3.246094 -10.9375 3.953125 -12.558594 5.3125 -12.558594 C 6.828125 -12.558594 7.167969 -10.335938 7.117188 -6.828125 C 7.089844 -5.179688 7.117188 -2.484375 7.117188 -1.359375 C 7.117188 -0.183594 7.640625 0.0273438 8.503906 0.0273438 C 9.550781 0.0273438 9.839844 -0.445312 9.8125 -1.519531 C 9.785156 -2.746094 9.628906 -6.933594 9.628906 -8.085938 C 9.628906 -12.351562 8.53125 -14.652344 5.703125 -14.652344 C 4.710938 -14.652344 3.558594 -14.050781 3.191406 -13.449219 C 2.984375 -14.15625 2.539062 -14.730469 1.675781 -14.730469 C 1.019531 -14.730469 0.574219 -14.417969 0.601562 -13.921875 L 0.679688 -12.140625 C 0.707031 -10.9375 0.734375 -9.761719 0.734375 -8.714844 C 0.734375 -7.167969 0.679688 -5.363281 0.679688 -2.957031 C 0.652344 -2.277344 0.679688 -1.359375 0.679688 -1.359375 C 0.679688 -0.183594 1.203125 0.0273438 2.25 0.0273438 Z M 2.25 0.0273438 "/></g></g></g><g fill="#000000" fill-opacity="1"><g transform="translate(242.156801, 251.010204)"><g><path d="M 5.285156 0.0273438 C 7.71875 0.0273438 9.394531 -1.097656 9.394531 -5.519531 C 9.394531 -7.25 9.316406 -10.546875 9.316406 -12.429688 C 9.316406 -12.742188 9.421875 -15.597656 9.421875 -17.007812 C 9.421875 -17.792969 9.132812 -18.421875 8.085938 -18.421875 C 7.039062 -18.421875 6.699219 -17.792969 6.699219 -16.984375 L 6.75 -14.367188 C 6.75 -14.367188 6.203125 -14.890625 5.15625 -14.890625 C 2.617188 -14.890625 0.523438 -12.402344 0.523438 -7.40625 C 0.523438 -4.132812 1.464844 0.0273438 5.285156 0.0273438 Z M 5.285156 -2.171875 C 4.03125 -2.171875 3.21875 -4.789062 3.21875 -7.40625 C 3.21875 -10.625 4.003906 -12.558594 5.179688 -12.558594 C 6.515625 -12.558594 6.960938 -11.566406 6.960938 -7.457031 C 6.960938 -3.53125 6.515625 -2.171875 5.285156 -2.171875 Z M 5.285156 -2.171875 "/></g></g></g><g fill="#000000" fill-opacity="1"><g transform="translate(252.357709, 251.010204)"><g/></g></g><g fill="#000000" fill-opacity="1"><g transform="translate(258.112073, 251.010204)"><g><path d="M 5.390625 0.261719 C 6.253906 0.261719 6.515625 -0.210938 6.515625 -1.28125 L 6.4375 -9.945312 C 6.4375 -10.703125 6.515625 -13.894531 6.515625 -14.890625 C 6.515625 -15.492188 6.671875 -15.777344 7.351562 -15.882812 C 7.851562 -15.960938 8.164062 -15.910156 9.054688 -16.09375 C 9.945312 -16.277344 10.257812 -17.0625 10.257812 -17.480469 C 10.257812 -17.898438 9.839844 -18.394531 9.183594 -18.394531 C 7.011719 -18.394531 4.132812 -18.421875 1.28125 -18.421875 C 0.785156 -18.421875 0.261719 -17.949219 0.261719 -17.296875 C 0.261719 -16.640625 0.105469 -16.039062 1.675781 -16.039062 C 3.246094 -16.039062 3.871094 -16.039062 3.871094 -14.601562 L 3.898438 -14.15625 C 4.03125 -11.828125 3.953125 -9.578125 3.953125 -7.511719 C 3.953125 -6.148438 3.925781 -4.554688 3.898438 -2.984375 C 3.871094 -2.304688 3.871094 -1.125 3.871094 -1.125 C 3.871094 0.0507812 4.527344 0.261719 5.390625 0.261719 Z M 5.390625 0.261719 "/></g></g></g><g fill="#000000" fill-opacity="1"><g transform="translate(268.626858, 251.010204)"><g><path d="M 7.613281 -3.976562 C 6.933594 -4.132812 6.332031 -4.003906 6.175781 -3.375 C 6.070312 -2.929688 5.625 -2.199219 4.894531 -2.199219 C 4.160156 -2.199219 3.507812 -3.847656 3.324219 -6.175781 C 4.554688 -6.019531 6.253906 -6.019531 6.988281 -6.148438 C 8.320312 -6.410156 8.6875 -7.167969 8.6875 -8.242188 C 8.6875 -12.742188 7.351562 -14.652344 4.996094 -14.652344 C 2.589844 -14.652344 0.785156 -11.800781 0.785156 -7.457031 C 0.785156 -2.800781 1.988281 -0.0507812 4.734375 -0.0507812 C 6.988281 -0.0507812 8.164062 -1.386719 8.503906 -2.667969 C 8.6875 -3.324219 8.398438 -3.792969 7.613281 -3.976562 Z M 4.867188 -12.535156 C 5.757812 -12.535156 6.203125 -11.332031 6.332031 -9.96875 C 6.488281 -8.269531 6.097656 -8.242188 5.703125 -8.191406 C 5.15625 -8.136719 4.003906 -8.164062 3.269531 -8.214844 C 3.375 -10.753906 4.082031 -12.535156 4.867188 -12.535156 Z M 4.867188 -12.535156 "/></g></g></g><g fill="#000000" fill-opacity="1"><g transform="translate(278.095401, 251.010204)"><g><path d="M 7.929688 0 C 8.582031 0 9 -0.3125 9 -0.8125 C 9 -0.914062 9 -1.074219 8.949219 -1.257812 C 8.871094 -1.4375 8.738281 -3.453125 8.738281 -7.457031 C 8.921875 -12.195312 8.164062 -14.628906 4.710938 -14.628906 C 2.199219 -14.628906 0.914062 -12.980469 0.914062 -10.730469 C 0.914062 -10.074219 1.386719 -9.683594 2.199219 -9.683594 C 2.878906 -9.683594 3.429688 -9.96875 3.429688 -10.597656 C 3.429688 -11.515625 3.792969 -12.507812 4.710938 -12.507812 C 5.941406 -12.507812 6.386719 -11.148438 6.386719 -8.53125 C 5.992188 -8.738281 5.390625 -9.183594 4.394531 -9.183594 C 2.460938 -9.183594 0.785156 -7.457031 0.785156 -4.554688 C 0.785156 -1.675781 2.042969 -0.0507812 4.238281 -0.0507812 C 4.917969 -0.0507812 6.019531 -0.289062 6.488281 -0.707031 C 6.699219 -0.183594 7.066406 0 7.929688 0 Z M 4.683594 -2.25 C 3.609375 -2.25 3.0625 -3.246094 3.0625 -4.65625 C 3.0625 -6.042969 3.585938 -7.066406 4.761719 -7.066406 C 5.730469 -7.066406 5.992188 -6.019531 5.992188 -4.710938 C 5.992188 -3.21875 5.730469 -2.25 4.683594 -2.25 Z M 4.683594 -2.25 "/></g></g></g><g fill="#000000" fill-opacity="1"><g transform="translate(287.879092, 251.010204)"><g/></g></g></svg>