<svg xmlns="http://www.w3.org/2000/svg" xmlns:xlink="http://www.w3.org/1999/xlink" zoomAndPan="magnify" preserveAspectRatio="xMidYMid meet" version="1.0" viewBox="58.89 118.23 245.95 117.56"><defs><g/><clipPath id="075af62a76"><path d="M 254 201 L 274.976562 201 L 274.976562 218.761719 L 254 218.761719 Z M 254 201 " clip-rule="nonzero"/></clipPath></defs><g fill="#000000" fill-opacity="1"><g transform="translate(58.311464, 170.301564)"><g><path d="M 55.71875 -38.390625 C 55.582031 -40.976562 54.78125 -42.355469 53.355469 -42.488281 C 48.902344 -43.023438 40.839844 -27.882812 33.582031 -5.96875 C 36.65625 -27.746094 34.738281 -31.398438 32.558594 -31.890625 C 31.488281 -32.113281 28.328125 -32.824219 19.730469 -13.050781 C 15.8125 -4.097656 11.757812 6.949219 8.375 17.726562 C 11.355469 3.164062 17.28125 -22.714844 19.242188 -30.863281 C 20.488281 -36.121094 20.21875 -39.238281 18.484375 -40.351562 C 17.546875 -40.929688 15.8125 -41.152344 12.738281 -38.792969 C 9.621094 -36.386719 6.191406 -32.066406 3.742188 -27.570312 C 2.09375 -24.496094 -0.445312 -18.707031 1.023438 -14.339844 C 2.40625 -10.242188 6.679688 -9.308594 10.019531 -9.265625 C 10.511719 -9.265625 10.867188 -9.621094 10.867188 -10.109375 C 10.910156 -10.601562 10.511719 -10.957031 10.019531 -10.957031 C 5.96875 -11.046875 3.519531 -12.335938 2.628906 -14.921875 C 0.625 -20.976562 7.929688 -32.871094 13.808594 -37.457031 C 15.5 -38.75 16.925781 -39.328125 17.59375 -38.882812 C 17.949219 -38.660156 19.019531 -37.410156 17.546875 -31.265625 C 16.746094 -27.835938 13.316406 -13.140625 10.15625 1.203125 C 8.460938 8.996094 7.125 15.230469 6.234375 19.6875 C 5.746094 22.269531 5.390625 24.273438 5.167969 25.652344 C 4.855469 27.746094 4.765625 28.636719 5.65625 28.90625 C 5.746094 28.949219 5.835938 28.996094 5.96875 28.996094 C 6.679688 28.996094 7.035156 28.015625 7.4375 26.945312 C 7.4375 26.902344 7.4375 26.902344 7.480469 26.855469 C 11.179688 13.585938 16.34375 -1.070312 21.289062 -12.382812 C 29.21875 -30.640625 32.066406 -30.242188 32.199219 -30.195312 C 32.246094 -30.195312 33.625 -29.796875 33.449219 -22.222656 C 33.269531 -16.121094 32.15625 -6.8125 30.109375 5.34375 C 30.019531 5.789062 30.332031 6.234375 30.777344 6.324219 C 31.222656 6.414062 31.667969 6.191406 31.753906 5.746094 C 36.964844 -12.203125 41.730469 -23.339844 44.851562 -29.527344 C 49.347656 -38.480469 52.199219 -40.796875 53.132812 -40.796875 C 53.132812 -40.796875 53.179688 -40.796875 53.179688 -40.796875 C 53.535156 -40.753906 53.9375 -39.996094 54.023438 -38.304688 C 54.382812 -32.691406 51.707031 -17.992188 49.347656 -5.03125 C 45.296875 17.191406 44.894531 21.199219 46.632812 21.824219 C 47.699219 22.222656 48.546875 20.976562 49.257812 19.730469 C 49.480469 19.328125 49.347656 18.796875 48.949219 18.574219 C 48.546875 18.351562 48.011719 18.484375 47.746094 18.882812 C 47.609375 19.152344 47.476562 19.375 47.34375 19.550781 C 47.253906 16.121094 49.347656 4.675781 51.039062 -4.722656 C 53.535156 -18.4375 56.117188 -32.601562 55.71875 -38.390625 Z M 55.71875 -38.390625 "/></g></g></g><g fill="#000000" fill-opacity="1"><g transform="translate(114.72789, 170.301564)"><g><path d="M 21.777344 -9.796875 C 21.511719 -10.199219 20.976562 -10.289062 20.578125 -10.019531 C 16.746094 -7.527344 12.828125 -4.765625 9.085938 -1.292969 C 9.621094 -4.585938 10.15625 -8.105469 10.644531 -11.800781 C 10.734375 -12.203125 10.464844 -12.605469 10.066406 -12.738281 C 9.710938 -12.871094 9.265625 -12.695312 9.085938 -12.335938 C 8.195312 -10.824219 6.234375 -7.707031 4.5 -5.613281 C 3.875 -4.855469 3.25 -4.453125 2.941406 -4.675781 C 2.183594 -5.121094 1.648438 -8.195312 3.386719 -12.425781 C 3.5625 -12.871094 3.339844 -13.363281 2.941406 -13.539062 C 2.492188 -13.71875 2.003906 -13.496094 1.824219 -13.050781 C 0 -8.597656 0.0898438 -4.363281 2.09375 -3.207031 C 2.582031 -2.851562 4.007812 -2.359375 5.789062 -4.5 C 6.726562 -5.613281 7.617188 -6.859375 8.417969 -8.0625 C 7.972656 -4.988281 7.527344 -2.046875 7.035156 0.757812 C 3.296875 4.585938 -0.222656 9.21875 -3.25 15.097656 C -8.328125 24.851562 -9.265625 35.675781 -6.726562 38.792969 C -6.234375 39.417969 -5.613281 39.726562 -4.945312 39.726562 C -4.722656 39.726562 -4.542969 39.683594 -4.320312 39.640625 C -1.425781 38.792969 1.15625 32.378906 2.851562 27.125 C 4.945312 20.578125 6.859375 12.023438 8.640625 1.558594 C 12.78125 -2.582031 17.191406 -5.789062 21.511719 -8.597656 C 21.914062 -8.863281 22.046875 -9.398438 21.777344 -9.796875 Z M 1.203125 26.589844 C -2.003906 36.742188 -4.320312 37.855469 -4.765625 37.992188 C -4.945312 38.035156 -5.121094 38.035156 -5.390625 37.722656 C -6.992188 35.765625 -7.125 26.277344 -1.738281 15.855469 C 0.757812 11.089844 3.519531 7.171875 6.503906 3.832031 C 4.898438 13.050781 3.117188 20.664062 1.203125 26.589844 Z M 1.203125 26.589844 "/></g></g></g><g fill="#000000" fill-opacity="1"><g transform="translate(134.453605, 170.301564)"><g><path d="M 36.742188 -18.214844 C 35.050781 -20.308594 32.734375 -21.644531 29.929688 -22.269531 C 30.242188 -22.625 30.507812 -22.980469 30.777344 -23.292969 C 33.625 -27.125 37.722656 -34.292969 33.269531 -39.640625 C 30.332031 -43.203125 24.316406 -44.714844 18.261719 -43.824219 C 18.261719 -43.914062 18.304688 -43.960938 18.304688 -44.046875 C 18.394531 -44.492188 18.082031 -44.9375 17.59375 -45.027344 C 17.148438 -45.117188 16.703125 -44.804688 16.613281 -44.316406 C 16.566406 -44.046875 16.523438 -43.78125 16.480469 -43.515625 C 14.742188 -43.113281 13.050781 -42.535156 11.402344 -41.730469 C 4.097656 -38.167969 0.933594 -31.578125 2.671875 -23.605469 C 2.761719 -23.160156 3.25 -22.847656 3.695312 -22.980469 C 4.140625 -23.070312 4.453125 -23.515625 4.363281 -24.007812 C 2.761719 -31.085938 5.613281 -37.011719 12.160156 -40.21875 C 13.449219 -40.839844 14.742188 -41.285156 16.121094 -41.644531 C 15.230469 -37.101562 13.941406 -30.6875 12.46875 -23.472656 C 11.847656 -20.355469 11.269531 -17.457031 10.6875 -14.742188 C 10.109375 -13.808594 9.664062 -12.78125 9.398438 -11.714844 C 9.175781 -10.867188 9.488281 -10.378906 9.753906 -10.109375 C 3.027344 23.515625 3.386719 25.164062 4.808594 25.609375 C 4.898438 25.652344 5.03125 25.652344 5.121094 25.652344 C 5.96875 25.652344 6.589844 24.539062 7.527344 22.269531 C 7.707031 21.824219 7.480469 21.332031 7.035156 21.15625 C 6.589844 20.976562 6.101562 21.15625 5.921875 21.601562 C 5.878906 21.777344 5.789062 21.914062 5.746094 22.046875 C 6.234375 16.65625 8.863281 3.164062 11.445312 -9.753906 C 15.1875 -10.199219 23.515625 -15.542969 28.59375 -20.753906 C 31.445312 -20.398438 33.761719 -19.195312 35.40625 -17.148438 C 38.480469 -13.316406 38.75 -7.125 36.074219 -1.023438 C 31.976562 8.375 22.625 14.476562 11 15.320312 C 10.511719 15.367188 10.15625 15.765625 10.199219 16.257812 C 10.242188 16.703125 10.601562 17.058594 11.046875 17.058594 C 11.089844 17.058594 11.089844 17.058594 11.132812 17.058594 C 23.382812 16.167969 33.316406 9.664062 37.679688 -0.355469 C 40.574219 -7.035156 40.21875 -13.894531 36.742188 -18.214844 Z M 11.800781 -11.535156 C 11.980469 -12.425781 12.160156 -13.273438 12.335938 -14.164062 C 14.609375 -17.726562 18.882812 -19.730469 22.667969 -20.488281 C 23.960938 -20.710938 25.164062 -20.84375 26.320312 -20.886719 C 21.246094 -16.035156 14.429688 -12.246094 11.800781 -11.535156 Z M 27.925781 -22.535156 C 26.1875 -22.667969 24.316406 -22.535156 22.3125 -22.136719 C 18.574219 -21.421875 15.367188 -19.820312 13.003906 -17.59375 C 13.40625 -19.507812 13.808594 -21.378906 14.164062 -23.117188 C 15.722656 -30.730469 17.058594 -37.457031 17.949219 -42.042969 C 23.5625 -42.980469 29.304688 -41.730469 31.933594 -38.570312 C 34.695312 -35.230469 33.761719 -30.195312 29.394531 -24.316406 C 28.949219 -23.738281 28.460938 -23.117188 27.925781 -22.535156 Z M 27.925781 -22.535156 "/></g></g></g><g fill="#000000" fill-opacity="1"><g transform="translate(178.046085, 170.301564)"><g><path d="M 17.726562 -9.621094 C 17.324219 -9.84375 16.789062 -9.710938 16.566406 -9.308594 C 12.335938 -2.539062 8.773438 0.488281 8.015625 0.222656 C 8.015625 0.222656 7.125 -0.265625 7.972656 -5.390625 C 8.285156 -7.125 8.417969 -8.105469 7.570312 -8.460938 C 6.769531 -8.773438 6.28125 -8.105469 5.34375 -6.769531 C 4.585938 -5.699219 3.5625 -4.277344 2.449219 -3.296875 C 2.316406 -3.207031 1.824219 -2.761719 1.601562 -2.941406 C 0.933594 -3.472656 0.800781 -6.367188 2.359375 -9.042969 C 2.628906 -9.441406 2.449219 -9.976562 2.046875 -10.242188 C 1.648438 -10.464844 1.113281 -10.332031 0.890625 -9.933594 C -0.890625 -6.8125 -1.070312 -2.941406 0.488281 -1.648438 C 0.890625 -1.292969 2.003906 -0.667969 3.5625 -1.960938 C 4.585938 -2.851562 5.476562 -4.007812 6.191406 -4.988281 C 5.566406 -0.847656 5.921875 1.246094 7.394531 1.824219 C 7.617188 1.914062 7.839844 1.914062 8.015625 1.914062 C 11.402344 1.914062 16.878906 -6.636719 17.992188 -8.417969 C 18.261719 -8.820312 18.128906 -9.351562 17.726562 -9.621094 Z M 17.726562 -9.621094 "/></g></g></g><g fill="#000000" fill-opacity="1"><g transform="translate(193.98695, 170.301564)"><g><path d="M 18.796875 -9.976562 C 18.394531 -10.199219 17.859375 -10.066406 17.59375 -9.664062 C 15.230469 -5.835938 11.535156 -2.40625 7.082031 0.222656 C 8.996094 -2.40625 9.933594 -5.390625 9.886719 -7.214844 C 9.84375 -8.90625 9.042969 -9.398438 8.550781 -9.53125 C 7.171875 -9.976562 5.34375 -8.597656 3.027344 -5.300781 C 2.226562 -4.230469 1.425781 -2.804688 0.578125 -1.113281 C 1.914062 -7.214844 3.742188 -15.1875 5.121094 -21.15625 C 11.046875 -31.800781 14.074219 -39.816406 12.828125 -41.554688 C 12.558594 -41.953125 12.113281 -42.089844 11.667969 -42 C 9.753906 -41.644531 6.769531 -35.140625 4.765625 -26.902344 C 4.410156 -25.652344 4.007812 -23.828125 3.519531 -21.734375 C 3.472656 -21.644531 3.472656 -21.554688 3.429688 -21.46875 C 1.023438 -11.132812 -2.894531 6.324219 -2.941406 7.792969 C -2.984375 8.238281 -2.671875 8.597656 -2.226562 8.683594 C -2.183594 8.683594 -2.136719 8.683594 -2.09375 8.683594 C -1.738281 8.683594 -1.378906 8.460938 -1.292969 8.0625 C -0.890625 6.902344 -0.488281 5.746094 -0.0429688 4.585938 C 0.179688 4.898438 0.578125 5.078125 0.980469 4.945312 C 5.566406 3.296875 14.03125 -0.625 19.0625 -8.773438 C 19.285156 -9.175781 19.195312 -9.710938 18.796875 -9.976562 Z M 11.355469 -39.550781 C 11 -37.769531 9.753906 -33.9375 6.769531 -27.925781 C 8.460938 -34.382812 10.289062 -38.035156 11.355469 -39.550781 Z M 0.445312 3.296875 C 1.738281 0.222656 3.164062 -2.582031 4.410156 -4.320312 C 6.8125 -7.707031 7.882812 -7.882812 8.015625 -7.882812 C 8.105469 -7.792969 8.328125 -7.214844 8.0625 -5.878906 C 7.480469 -3.117188 5.03125 1.601562 0.445312 3.296875 Z M 0.445312 3.296875 "/></g></g></g><g fill="#000000" fill-opacity="1"><g transform="translate(210.729314, 170.301564)"><g><path d="M 18.796875 -9.976562 C 18.394531 -10.199219 17.859375 -10.066406 17.59375 -9.664062 C 15.230469 -5.835938 11.535156 -2.40625 7.082031 0.222656 C 8.996094 -2.40625 9.933594 -5.390625 9.886719 -7.214844 C 9.84375 -8.90625 9.042969 -9.398438 8.550781 -9.53125 C 7.171875 -9.976562 5.34375 -8.597656 3.027344 -5.300781 C 2.226562 -4.230469 1.425781 -2.804688 0.578125 -1.113281 C 1.914062 -7.214844 3.742188 -15.1875 5.121094 -21.15625 C 11.046875 -31.800781 14.074219 -39.816406 12.828125 -41.554688 C 12.558594 -41.953125 12.113281 -42.089844 11.667969 -42 C 9.753906 -41.644531 6.769531 -35.140625 4.765625 -26.902344 C 4.410156 -25.652344 4.007812 -23.828125 3.519531 -21.734375 C 3.472656 -21.644531 3.472656 -21.554688 3.429688 -21.46875 C 1.023438 -11.132812 -2.894531 6.324219 -2.941406 7.792969 C -2.984375 8.238281 -2.671875 8.597656 -2.226562 8.683594 C -2.183594 8.683594 -2.136719 8.683594 -2.09375 8.683594 C -1.738281 8.683594 -1.378906 8.460938 -1.292969 8.0625 C -0.890625 6.902344 -0.488281 5.746094 -0.0429688 4.585938 C 0.179688 4.898438 0.578125 5.078125 0.980469 4.945312 C 5.566406 3.296875 14.03125 -0.625 19.0625 -8.773438 C 19.285156 -9.175781 19.195312 -9.710938 18.796875 -9.976562 Z M 11.355469 -39.550781 C 11 -37.769531 9.753906 -33.9375 6.769531 -27.925781 C 8.460938 -34.382812 10.289062 -38.035156 11.355469 -39.550781 Z M 0.445312 3.296875 C 1.738281 0.222656 3.164062 -2.582031 4.410156 -4.320312 C 6.8125 -7.707031 7.882812 -7.882812 8.015625 -7.882812 C 8.105469 -7.792969 8.328125 -7.214844 8.0625 -5.878906 C 7.480469 -3.117188 5.03125 1.601562 0.445312 3.296875 Z M 0.445312 3.296875 "/></g></g></g><g fill="#000000" fill-opacity="1"><g transform="translate(227.471679, 170.301564)"><g><path d="M 13.09375 -41.730469 C 12.78125 -42.132812 12.335938 -42.3125 11.890625 -42.265625 C 9.351562 -41.820312 6.636719 -32.335938 5.878906 -29.441406 C 3.652344 -20.933594 0.847656 -8.863281 -1.425781 1.960938 C -2.492188 7.082031 -3.339844 11.402344 -3.875 14.519531 C -4.765625 19.773438 -4.632812 20.441406 -3.785156 20.664062 C -3.695312 20.710938 -3.609375 20.710938 -3.519531 20.710938 C -2.71875 20.710938 -2.316406 19.640625 -1.914062 18.484375 C -1.78125 18.039062 -2.003906 17.546875 -2.449219 17.414062 C -2.492188 17.371094 -2.539062 17.371094 -2.582031 17.371094 C -1.648438 10.957031 2.183594 -7.707031 6.101562 -23.339844 C 6.101562 -23.382812 6.144531 -23.425781 6.191406 -23.472656 C 11.980469 -32.644531 14.253906 -39.949219 13.09375 -41.730469 Z M 7.617188 -29.351562 C 9.308594 -35.628906 10.824219 -38.660156 11.625 -39.90625 C 11.445312 -38.257812 10.464844 -34.695312 7.617188 -29.351562 Z M 7.617188 -29.351562 "/></g></g></g><g fill="#000000" fill-opacity="1"><g transform="translate(234.239862, 170.301564)"><g><path d="M 15.054688 -9.933594 C 14.652344 -10.199219 14.117188 -10.109375 13.851562 -9.710938 C 10.511719 -5.03125 7.792969 -2.09375 5.121094 -0.179688 C 3.785156 0.757812 2.492188 0.933594 1.648438 0.3125 C 1.113281 -0.0898438 -0.535156 -1.871094 1.378906 -8.105469 C 5.699219 -11.667969 8.0625 -15.054688 7.4375 -16.835938 C 7.214844 -17.371094 6.679688 -17.726562 6.101562 -17.726562 C 4.320312 -17.679688 1.601562 -14.609375 -0.179688 -8.863281 C -2.359375 -1.78125 -0.578125 0.800781 0.667969 1.691406 C 1.292969 2.183594 2.003906 2.40625 2.804688 2.40625 C 3.832031 2.40625 4.988281 2.003906 6.101562 1.203125 C 8.953125 -0.847656 11.757812 -3.875 15.230469 -8.730469 C 15.5 -9.128906 15.410156 -9.664062 15.054688 -9.933594 Z M 5.746094 -15.855469 C 5.566406 -15.144531 4.808594 -13.71875 2.71875 -11.578125 C 3.875 -14.164062 5.121094 -15.410156 5.746094 -15.855469 Z M 5.746094 -15.855469 "/></g></g></g><g fill="#000000" fill-opacity="1"><g transform="translate(247.197376, 170.301564)"><g><path d="M 57.585938 -51.484375 C 57.453125 -51.929688 56.964844 -52.199219 56.519531 -52.019531 C 53.402344 -51.039062 48.636719 -49.617188 43.15625 -47.921875 C 34.429688 -45.296875 23.515625 -42 15.054688 -39.195312 C 10.378906 -37.589844 6.902344 -36.34375 4.453125 -35.320312 C 0.445312 -33.625 -0.265625 -32.824219 -0.222656 -31.933594 C -0.179688 -31.488281 0.0898438 -30.863281 1.292969 -30.640625 C 1.335938 -30.640625 1.378906 -30.640625 1.425781 -30.640625 C 1.824219 -30.640625 2.183594 -30.910156 2.269531 -31.308594 C 2.359375 -31.667969 2.183594 -32.023438 1.914062 -32.199219 C 3.074219 -32.914062 6.457031 -34.515625 16.523438 -37.855469 C 18.839844 -38.613281 21.289062 -39.417969 23.785156 -40.21875 C 22.359375 -34.339844 20.308594 -25.207031 18.171875 -15.589844 C 15.1875 -2.09375 11.3125 15.367188 9.21875 22.667969 C 9.21875 22.136719 9.308594 21.554688 9.351562 20.84375 C 9.398438 20.398438 9.042969 19.953125 8.550781 19.910156 C 8.105469 19.863281 7.707031 20.21875 7.660156 20.710938 C 7.125 26.457031 7.347656 27.390625 8.328125 27.523438 C 8.417969 27.523438 8.460938 27.570312 8.550781 27.570312 C 9.351562 27.570312 9.84375 26.632812 10.824219 23.25 C 11.445312 20.976562 12.292969 17.769531 13.363281 13.40625 C 15.277344 5.34375 17.59375 -5.078125 19.863281 -15.230469 C 22.136719 -25.386719 24.273438 -35.050781 25.699219 -40.796875 C 31.800781 -42.710938 38.167969 -44.628906 43.648438 -46.273438 C 49.171875 -47.96875 53.890625 -49.394531 57.054688 -50.417969 C 57.5 -50.550781 57.765625 -51.039062 57.585938 -51.484375 Z M 57.585938 -51.484375 "/></g></g></g><g fill="#000000" fill-opacity="1"><g transform="translate(271.331315, 170.301564)"><g><path d="M 15.054688 -9.933594 C 14.652344 -10.199219 14.117188 -10.109375 13.851562 -9.710938 C 10.511719 -5.03125 7.792969 -2.09375 5.121094 -0.179688 C 3.785156 0.757812 2.492188 0.933594 1.648438 0.3125 C 1.113281 -0.0898438 -0.535156 -1.871094 1.378906 -8.105469 C 5.699219 -11.667969 8.0625 -15.054688 7.4375 -16.835938 C 7.214844 -17.371094 6.679688 -17.726562 6.101562 -17.726562 C 4.320312 -17.679688 1.601562 -14.609375 -0.179688 -8.863281 C -2.359375 -1.78125 -0.578125 0.800781 0.667969 1.691406 C 1.292969 2.183594 2.003906 2.40625 2.804688 2.40625 C 3.832031 2.40625 4.988281 2.003906 6.101562 1.203125 C 8.953125 -0.847656 11.757812 -3.875 15.230469 -8.730469 C 15.5 -9.128906 15.410156 -9.664062 15.054688 -9.933594 Z M 5.746094 -15.855469 C 5.566406 -15.144531 4.808594 -13.71875 2.71875 -11.578125 C 3.875 -14.164062 5.121094 -15.410156 5.746094 -15.855469 Z M 5.746094 -15.855469 "/></g></g></g><g fill="#000000" fill-opacity="1"><g transform="translate(284.288829, 170.301564)"><g><path d="M 18.617188 -9.886719 C 18.214844 -10.066406 17.679688 -9.886719 17.503906 -9.488281 C 14.117188 -2.582031 11.578125 -0.402344 10.378906 -0.625 C 9.886719 -0.710938 8.285156 -1.648438 7.882812 -9.441406 C 7.882812 -9.796875 7.617188 -10.109375 7.304688 -10.199219 C 6.949219 -10.289062 6.546875 -10.199219 6.367188 -9.886719 C 6.101562 -9.574219 5.835938 -9.21875 5.566406 -8.820312 C 4.453125 -7.304688 2.984375 -5.253906 1.203125 -3.339844 C 0.933594 -3.027344 0.710938 -2.851562 0.578125 -2.761719 C 0.265625 -4.320312 1.914062 -10.289062 4.542969 -12.160156 C 5.300781 -12.695312 6.324219 -13.09375 7.707031 -11.492188 C 8.015625 -11.132812 8.550781 -11.089844 8.90625 -11.402344 C 9.265625 -11.667969 9.308594 -12.246094 9.042969 -12.605469 C 7.347656 -14.5625 5.746094 -14.519531 4.675781 -14.164062 C 1.246094 -12.960938 -1.070312 -6.367188 -1.15625 -3.339844 C -1.203125 -2.09375 -0.847656 -1.292969 -0.132812 -1.023438 C 0.980469 -0.578125 2.09375 -1.78125 2.449219 -2.183594 C 3.964844 -3.832031 5.34375 -5.613281 6.324219 -6.992188 C 6.8125 -1.914062 8.015625 0.625 10.019531 1.070312 C 10.199219 1.070312 10.378906 1.113281 10.554688 1.113281 C 13.585938 1.113281 16.835938 -4.1875 19.019531 -8.730469 C 19.242188 -9.175781 19.0625 -9.664062 18.617188 -9.886719 Z M 18.617188 -9.886719 "/></g></g></g><g clip-path="url(#075af62a76)"><path fill="#c6302c" d="M 273.992188 205.546875 C 272.902344 199.902344 266.0625 199.808594 264.378906 205.085938 C 262.691406 199.808594 255.855469 199.902344 254.761719 205.546875 C 253.773438 210.664062 264.378906 218.742188 264.378906 218.742188 C 264.378906 218.742188 274.980469 210.664062 273.992188 205.546875 Z M 273.992188 205.546875 " fill-opacity="1" fill-rule="nonzero"/></g><g fill="#000000" fill-opacity="1"><g transform="translate(100.035159, 235.39403)"><g><path d="M 1.949219 0.390625 C 3.386719 0.390625 3.933594 0.195312 4.324219 -0.933594 C 4.480469 -1.363281 4.632812 -2.21875 4.867188 -3.269531 C 5.140625 -4.441406 5.878906 -12.308594 6.074219 -14.136719 C 6.113281 -14.527344 6.269531 -14.878906 6.386719 -14.878906 C 6.503906 -14.878906 6.621094 -14.605469 6.699219 -13.902344 C 6.855469 -12.347656 8.257812 -5.023438 8.488281 -3.816406 C 8.722656 -2.609375 10.125 -2.0625 11.023438 -2.0625 C 11.917969 -2.0625 13.28125 -2.609375 13.515625 -3.816406 C 13.746094 -5.023438 15.148438 -12.347656 15.304688 -13.902344 C 15.382812 -14.605469 15.5 -14.878906 15.617188 -14.878906 C 15.734375 -14.878906 15.890625 -14.527344 15.929688 -14.136719 C 16.125 -12.308594 16.863281 -4.441406 17.136719 -3.269531 C 17.371094 -2.21875 17.527344 -1.363281 17.679688 -0.933594 C 18.070312 0.195312 18.617188 0.390625 20.058594 0.390625 C 21.1875 0.390625 21.613281 -0.234375 21.613281 -1.050781 C 21.613281 -1.246094 21.574219 -1.480469 21.535156 -1.675781 C 21.421875 -2.140625 21.070312 -5.257812 20.71875 -8.453125 C 20.210938 -13.28125 19.511719 -23.054688 19.199219 -25.199219 C 19.003906 -26.445312 18.695312 -27.613281 16.785156 -27.613281 C 14.722656 -27.613281 14.253906 -27.105469 13.941406 -25.664062 C 13.515625 -23.601562 13.203125 -22.121094 12.96875 -20.679688 L 11.449219 -11.566406 C 11.410156 -11.214844 11.214844 -11.023438 11.023438 -11.023438 C 10.828125 -11.023438 10.632812 -11.214844 10.554688 -11.566406 L 9.035156 -20.679688 C 8.800781 -22.121094 8.488281 -23.601562 8.0625 -25.664062 C 7.75 -27.105469 7.28125 -27.613281 5.21875 -27.613281 C 3.308594 -27.613281 2.921875 -26.445312 2.804688 -25.199219 C 2.53125 -22.550781 2.179688 -13.28125 1.402344 -8.453125 C 0.894531 -5.296875 0.585938 -2.296875 0.46875 -1.675781 C 0.429688 -1.402344 0.390625 -1.128906 0.390625 -0.894531 C 0.390625 -0.0390625 0.816406 0.390625 1.949219 0.390625 Z M 1.949219 0.390625 "/></g></g></g><g fill="#000000" fill-opacity="1"><g transform="translate(122.029998, 235.39403)"><g><path d="M 3.269531 -23.953125 C 3.855469 -23.953125 4.441406 -24.105469 4.710938 -24.417969 C 5.0625 -24.769531 5.21875 -25.316406 5.21875 -25.78125 C 5.21875 -26.25 5.101562 -26.714844 4.828125 -27.066406 C 4.128906 -27.925781 3.464844 -28.15625 2.921875 -28.15625 C 2.492188 -28.15625 2.101562 -27.964844 1.792969 -27.769531 C 1.402344 -27.496094 1.128906 -26.871094 1.128906 -26.25 C 1.128906 -25.742188 1.285156 -25.199219 1.558594 -24.691406 C 1.910156 -24.144531 2.609375 -23.953125 3.269531 -23.953125 Z M 3.269531 0 C 5.179688 0 5.296875 -1.011719 5.296875 -2.023438 C 5.296875 -2.023438 5.296875 -3.425781 5.21875 -4.207031 C 5.21875 -5.257812 5.179688 -6.269531 5.179688 -7.203125 L 5.21875 -10.320312 L 5.21875 -16.28125 C 5.21875 -17.449219 5.375 -18.964844 5.375 -20.210938 C 5.375 -20.953125 5.179688 -21.886719 3.195312 -21.886719 C 1.246094 -21.886719 1.167969 -20.796875 1.167969 -19.824219 C 1.167969 -18.695312 1.324219 -17.332031 1.324219 -16.28125 C 1.363281 -13.554688 1.363281 -11.722656 1.363281 -9.308594 C 1.363281 -7.710938 1.363281 -6.035156 1.324219 -4.207031 C 1.285156 -3.425781 1.285156 -2.023438 1.285156 -2.023438 C 1.285156 -0.699219 1.984375 0 3.269531 0 Z M 3.269531 0 "/></g></g></g><g fill="#000000" fill-opacity="1"><g transform="translate(128.570064, 235.39403)"><g><path d="M 3.269531 0.351562 C 5.101562 0.351562 5.21875 -0.625 5.21875 -1.949219 C 5.21875 -1.949219 5.21875 -3.699219 5.179688 -4.710938 C 5.140625 -6.035156 5.140625 -7.28125 5.101562 -8.488281 L 5.140625 -13.085938 L 5.179688 -20.679688 C 5.179688 -22.199219 5.335938 -24.105469 5.335938 -25.664062 C 5.335938 -26.679688 5.140625 -27.535156 3.15625 -27.535156 C 1.246094 -27.535156 1.167969 -26.445312 1.167969 -25.199219 C 1.167969 -23.757812 1.324219 -22.042969 1.324219 -20.679688 C 1.363281 -17.214844 1.402344 -14.253906 1.402344 -11.175781 C 1.402344 -9.152344 1.363281 -7.050781 1.324219 -4.710938 C 1.285156 -3.699219 1.285156 -1.949219 1.285156 -1.949219 C 1.285156 -0.625 1.753906 0.351562 3.269531 0.351562 Z M 3.269531 0.351562 "/></g></g></g><g fill="#000000" fill-opacity="1"><g transform="translate(135.071193, 235.39403)"><g><path d="M 13.125 -1.714844 C 12.578125 -2.84375 10.007812 -6.582031 7.867188 -10.359375 C 7.59375 -10.867188 7.320312 -11.253906 7.75 -11.957031 C 10.476562 -16.511719 12.113281 -18.5 12.578125 -19.316406 C 12.773438 -19.746094 12.8125 -19.902344 12.8125 -20.097656 C 12.8125 -20.796875 12.074219 -21.1875 11.488281 -21.304688 C 9.542969 -21.730469 8.996094 -20.71875 8.375 -19.785156 C 7.75 -18.8125 5.765625 -15.65625 5.21875 -14.761719 L 5.257812 -17.410156 C 5.296875 -20.367188 5.375 -24.339844 5.375 -25.546875 C 5.375 -26.367188 5.140625 -27.261719 3.195312 -27.261719 C 1.285156 -27.261719 1.167969 -26.132812 1.167969 -25.199219 C 1.167969 -24.03125 1.285156 -22.976562 1.285156 -16.628906 C 1.285156 -13.902344 1.324219 -11.566406 1.324219 -9.152344 C 1.324219 -7.59375 1.324219 -5.917969 1.285156 -4.089844 C 1.246094 -3.269531 1.246094 -1.519531 1.246094 -1.519531 C 1.246094 -0.3125 1.832031 0.15625 3.269531 0.15625 C 5.140625 0.15625 5.296875 -0.429688 5.296875 -1.519531 C 5.296875 -1.519531 5.296875 -3.269531 5.257812 -4.089844 C 5.21875 -5.140625 5.21875 -6.113281 5.21875 -7.050781 L 5.21875 -7.203125 C 5.726562 -6.425781 7.398438 -3.464844 8.917969 -1.089844 C 9.542969 -0.078125 10.125 0.195312 11.488281 0.195312 C 12.539062 0.195312 13.28125 -0.3125 13.28125 -1.089844 C 13.28125 -1.324219 13.242188 -1.480469 13.125 -1.714844 Z M 13.125 -1.714844 "/></g></g></g><g fill="#000000" fill-opacity="1"><g transform="translate(148.735234, 235.39403)"><g/></g></g><g fill="#000000" fill-opacity="1"><g transform="translate(157.2996, 235.39403)"><g><path d="M 11.800781 0 C 12.773438 0 13.398438 -0.46875 13.398438 -1.207031 C 13.398438 -1.363281 13.398438 -1.597656 13.320312 -1.871094 C 13.203125 -2.140625 13.007812 -5.140625 13.007812 -11.097656 C 13.28125 -18.148438 12.152344 -21.769531 7.011719 -21.769531 C 3.269531 -21.769531 1.363281 -19.316406 1.363281 -15.96875 C 1.363281 -14.992188 2.0625 -14.410156 3.269531 -14.410156 C 4.285156 -14.410156 5.101562 -14.839844 5.101562 -15.773438 C 5.101562 -17.136719 5.648438 -18.617188 7.011719 -18.617188 C 8.839844 -18.617188 9.503906 -16.589844 9.503906 -12.695312 C 8.917969 -13.007812 8.023438 -13.671875 6.542969 -13.671875 C 3.660156 -13.671875 1.167969 -11.097656 1.167969 -6.777344 C 1.167969 -2.492188 3.039062 -0.078125 6.308594 -0.078125 C 7.320312 -0.078125 8.957031 -0.429688 9.660156 -1.050781 C 9.96875 -0.273438 10.515625 0 11.800781 0 Z M 6.972656 -3.347656 C 5.375 -3.347656 4.558594 -4.828125 4.558594 -6.933594 C 4.558594 -8.996094 5.335938 -10.515625 7.089844 -10.515625 C 8.527344 -10.515625 8.917969 -8.957031 8.917969 -7.011719 C 8.917969 -4.789062 8.527344 -3.347656 6.972656 -3.347656 Z M 6.972656 -3.347656 "/></g></g></g><g fill="#000000" fill-opacity="1"><g transform="translate(171.859007, 235.39403)"><g><path d="M 3.347656 0.0390625 C 4.632812 0.0390625 5.023438 -0.660156 5.023438 -2.257812 C 4.90625 -5.101562 4.828125 -8.375 4.828125 -10.164062 C 4.828125 -16.28125 5.878906 -18.695312 7.90625 -18.695312 C 10.164062 -18.695312 10.671875 -15.382812 10.59375 -10.164062 C 10.554688 -7.710938 10.59375 -3.699219 10.59375 -2.023438 C 10.59375 -0.273438 11.371094 0.0390625 12.65625 0.0390625 C 14.214844 0.0390625 14.644531 -0.660156 14.605469 -2.257812 C 14.566406 -4.089844 14.332031 -10.320312 14.332031 -12.035156 C 14.332031 -18.382812 12.695312 -21.808594 8.488281 -21.808594 C 7.011719 -21.808594 5.296875 -20.914062 4.75 -20.019531 C 4.441406 -21.070312 3.777344 -21.925781 2.492188 -21.925781 C 1.519531 -21.925781 0.855469 -21.460938 0.894531 -20.71875 L 1.011719 -18.070312 C 1.050781 -16.28125 1.089844 -14.527344 1.089844 -12.96875 C 1.089844 -10.671875 1.011719 -7.984375 1.011719 -4.402344 C 0.972656 -3.386719 1.011719 -2.023438 1.011719 -2.023438 C 1.011719 -0.273438 1.792969 0.0390625 3.347656 0.0390625 Z M 3.347656 0.0390625 "/></g></g></g><g fill="#000000" fill-opacity="1"><g transform="translate(187.352717, 235.39403)"><g><path d="M 7.867188 0.0390625 C 11.488281 0.0390625 13.980469 -1.636719 13.980469 -8.21875 C 13.980469 -10.789062 13.863281 -15.695312 13.863281 -18.5 C 13.863281 -18.964844 14.019531 -23.210938 14.019531 -25.316406 C 14.019531 -26.484375 13.59375 -27.417969 12.035156 -27.417969 C 10.476562 -27.417969 9.96875 -26.484375 9.96875 -25.277344 L 10.046875 -21.382812 C 10.046875 -21.382812 9.230469 -22.160156 7.671875 -22.160156 C 3.894531 -22.160156 0.777344 -18.460938 0.777344 -11.023438 C 0.777344 -6.152344 2.179688 0.0390625 7.867188 0.0390625 Z M 7.867188 -3.234375 C 5.996094 -3.234375 4.789062 -7.128906 4.789062 -11.023438 C 4.789062 -15.8125 5.957031 -18.695312 7.710938 -18.695312 C 9.699219 -18.695312 10.359375 -17.214844 10.359375 -11.097656 C 10.359375 -5.257812 9.699219 -3.234375 7.867188 -3.234375 Z M 7.867188 -3.234375 "/></g></g></g><g fill="#000000" fill-opacity="1"><g transform="translate(202.534986, 235.39403)"><g/></g></g><g fill="#000000" fill-opacity="1"><g transform="translate(211.099352, 235.39403)"><g><path d="M 8.023438 0.390625 C 9.308594 0.390625 9.699219 -0.3125 9.699219 -1.910156 L 9.582031 -14.800781 C 9.582031 -15.929688 9.699219 -20.679688 9.699219 -22.160156 C 9.699219 -23.054688 9.929688 -23.484375 10.945312 -23.640625 C 11.683594 -23.757812 12.152344 -23.679688 13.476562 -23.953125 C 14.800781 -24.222656 15.265625 -25.394531 15.265625 -26.015625 C 15.265625 -26.640625 14.644531 -27.378906 13.671875 -27.378906 C 10.4375 -27.378906 6.152344 -27.417969 1.910156 -27.417969 C 1.167969 -27.417969 0.390625 -26.714844 0.390625 -25.742188 C 0.390625 -24.769531 0.15625 -23.875 2.492188 -23.875 C 4.828125 -23.875 5.765625 -23.875 5.765625 -21.730469 L 5.804688 -21.070312 C 5.996094 -17.601562 5.878906 -14.253906 5.878906 -11.175781 C 5.878906 -9.152344 5.84375 -6.777344 5.804688 -4.441406 C 5.765625 -3.425781 5.765625 -1.675781 5.765625 -1.675781 C 5.765625 0.078125 6.738281 0.390625 8.023438 0.390625 Z M 8.023438 0.390625 "/></g></g></g><g fill="#000000" fill-opacity="1"><g transform="translate(226.748773, 235.39403)"><g><path d="M 11.332031 -5.917969 C 10.320312 -6.152344 9.425781 -5.957031 9.191406 -5.023438 C 9.035156 -4.363281 8.375 -3.269531 7.28125 -3.269531 C 6.191406 -3.269531 5.21875 -5.726562 4.945312 -9.191406 C 6.777344 -8.957031 9.308594 -8.957031 10.398438 -9.152344 C 12.382812 -9.542969 12.929688 -10.671875 12.929688 -12.269531 C 12.929688 -18.964844 10.945312 -21.808594 7.4375 -21.808594 C 3.855469 -21.808594 1.167969 -17.566406 1.167969 -11.097656 C 1.167969 -4.167969 2.960938 -0.078125 7.050781 -0.078125 C 10.398438 -0.078125 12.152344 -2.0625 12.65625 -3.972656 C 12.929688 -4.945312 12.5 -5.648438 11.332031 -5.917969 Z M 7.242188 -18.65625 C 8.566406 -18.65625 9.230469 -16.863281 9.425781 -14.839844 C 9.660156 -12.308594 9.074219 -12.269531 8.488281 -12.191406 C 7.671875 -12.113281 5.957031 -12.152344 4.867188 -12.230469 C 5.023438 -16.007812 6.074219 -18.65625 7.242188 -18.65625 Z M 7.242188 -18.65625 "/></g></g></g><g fill="#000000" fill-opacity="1"><g transform="translate(240.841046, 235.39403)"><g><path d="M 11.800781 0 C 12.773438 0 13.398438 -0.46875 13.398438 -1.207031 C 13.398438 -1.363281 13.398438 -1.597656 13.320312 -1.871094 C 13.203125 -2.140625 13.007812 -5.140625 13.007812 -11.097656 C 13.28125 -18.148438 12.152344 -21.769531 7.011719 -21.769531 C 3.269531 -21.769531 1.363281 -19.316406 1.363281 -15.96875 C 1.363281 -14.992188 2.0625 -14.410156 3.269531 -14.410156 C 4.285156 -14.410156 5.101562 -14.839844 5.101562 -15.773438 C 5.101562 -17.136719 5.648438 -18.617188 7.011719 -18.617188 C 8.839844 -18.617188 9.503906 -16.589844 9.503906 -12.695312 C 8.917969 -13.007812 8.023438 -13.671875 6.542969 -13.671875 C 3.660156 -13.671875 1.167969 -11.097656 1.167969 -6.777344 C 1.167969 -2.492188 3.039062 -0.078125 6.308594 -0.078125 C 7.320312 -0.078125 8.957031 -0.429688 9.660156 -1.050781 C 9.96875 -0.273438 10.515625 0 11.800781 0 Z M 6.972656 -3.347656 C 5.375 -3.347656 4.558594 -4.828125 4.558594 -6.933594 C 4.558594 -8.996094 5.335938 -10.515625 7.089844 -10.515625 C 8.527344 -10.515625 8.917969 -8.957031 8.917969 -7.011719 C 8.917969 -4.789062 8.527344 -3.347656 6.972656 -3.347656 Z M 6.972656 -3.347656 "/></g></g></g><g fill="#000000" fill-opacity="1"><g transform="translate(255.402361, 235.39403)"><g/></g></g></svg>